# MagicaVoxel @ Ephtracy

# group
o 

# material
mtllib PlayerAttack.mtl
usemtl palette

# normals
vn -1 0 0
vn 1 0 0
vn 0 0 1
vn 0 0 -1
vn 0 -1 0
vn 0 1 0

# texcoords
vt 0.841797 0.5
vt 0.869141 0.5
vt 0.970703 0.5
vt 0.974609 0.5
vt 0.978516 0.5
vt 0.982422 0.5
vt 0.994141 0.5

# verts
v -0.7 0.7 -0.3
v -0.7 0.7 -0.5
v -0.7 0.8 -0.3
v -0.7 0.8 -0.5
v -0.3 0.6 -0.3
v -0.3 0.6 -0.5
v -0.3 0.7 -0.3
v -0.3 0.7 -0.5
v -0.2 0.5 -0.3
v -0.2 0.5 -0.4
v -0.2 0.5 -0.5
v -0.2 0.6 -0.3
v -0.2 0.6 -0.4
v -0.2 0.6 -0.5
v -0.2 0.6 -0.6
v -0.2 0.7 -0.5
v -0.2 0.7 -0.6
v 0 0.9 -0.5
v 0 0.9 -0.6
v 0 0.9 -0.7
v 0 1 -0.5
v 0 1 -0.6
v 0 1.1 -0.4
v 0 1.1 -0.6
v 0 1.2 -0.4
v 0 1.2 -0.7
v 0.1 0.8 -0.5
v 0.1 0.8 -0.7
v 0.1 0.9 -0.4
v 0.1 0.9 -0.5
v 0.1 0.9 -0.6
v 0.1 0.9 -0.7
v 0.1 0.9 -0.8
v 0.1 1 -0.3
v 0.1 1 -0.4
v 0.1 1 -0.5
v 0.1 1 -0.6
v 0.1 1.1 -0.4
v 0.1 1.1 -0.6
v 0.1 1.2 -0.3
v 0.1 1.2 -0.4
v 0.1 1.2 -0.7
v 0.1 1.2 -0.8
v 0.1 1.3 -0.4
v 0.1 1.3 -0.7
v 0.2 0 -0.5
v 0.2 0 -0.6
v 0.2 0.1 -0.5
v 0.2 0.1 -0.6
v 0.2 0.3 -0.4
v 0.2 0.3 -0.5
v 0.2 0.3 -0.6
v 0.2 0.3 -0.7
v 0.2 0.4 -0.4
v 0.2 0.4 -0.7
v 0.2 0.6 -0.5
v 0.2 0.6 -0.6
v 0.2 0.7 -0.4
v 0.2 0.7 -0.5
v 0.2 0.7 -0.6
v 0.2 0.7 -0.7
v 0.2 0.8 -0.4
v 0.2 0.8 -0.5
v 0.2 0.8 -0.7
v 0.2 0.8 -0.8
v 0.2 0.9 -0.4
v 0.2 0.9 -0.5
v 0.2 0.9 -0.7
v 0.2 0.9 -0.8
v 0.2 1.1 -0.2
v 0.2 1.1 -0.3
v 0.2 1.2 -0.2
v 0.2 1.2 -0.3
v 0.2 1.2 -0.4
v 0.2 1.3 -0.3
v 0.2 1.3 -0.4
v 0.2 1.3 -0.6
v 0.2 1.4 -0.4
v 0.2 1.4 -0.6
v 0.4 1 -0.3
v 0.4 1 -0.4
v 0.4 1.1 -0.3
v 0.4 1.1 -0.4
v 0.5 0 -0.5
v 0.5 0 -0.6
v 0.5 0.1 -0.5
v 0.5 0.1 -0.6
v 0.5 0.3 -0.5
v 0.5 0.3 -0.6
v 0.6 1 -0.3
v 0.6 1 -0.4
v 0.6 1.1 -0.3
v 0.6 1.1 -0.4
v -0.1 0.5 -0.3
v -0.1 0.5 -0.4
v -0.1 0.5 -0.5
v -0.1 0.6 -0.5
v -0.1 0.7 -0.3
v -0.1 0.7 -0.4
v -0.1 0.7 -0.5
v 0 0.7 -0.3
v 0 0.7 -0.5
v 0 0.8 -0.3
v 0 0.8 -0.5
v 0.2 1 -0.3
v 0.2 1 -0.4
v 0.2 1.1 -0.3
v 0.2 1.1 -0.4
v 0.3 0 -0.5
v 0.3 0 -0.6
v 0.3 0.1 -0.5
v 0.3 0.1 -0.6
v 0.3 0.3 -0.5
v 0.3 0.3 -0.6
v 0.5 1 -0.3
v 0.5 1 -0.4
v 0.5 1.1 -0.3
v 0.5 1.1 -0.4
v 0.6 0 -0.5
v 0.6 0 -0.6
v 0.6 0.1 -0.5
v 0.6 0.1 -0.6
v 0.6 0.3 -0.4
v 0.6 0.3 -0.5
v 0.6 0.3 -0.6
v 0.6 0.3 -0.7
v 0.6 0.4 -0.4
v 0.6 0.4 -0.7
v 0.6 0.6 -0.5
v 0.6 0.6 -0.6
v 0.6 0.7 -0.4
v 0.6 0.7 -0.5
v 0.6 0.7 -0.6
v 0.6 0.7 -0.7
v 0.6 0.8 -0.4
v 0.6 0.8 -0.5
v 0.6 0.8 -0.7
v 0.6 0.8 -0.8
v 0.6 0.9 -0.4
v 0.6 0.9 -0.5
v 0.6 0.9 -0.7
v 0.6 0.9 -0.8
v 0.6 1.1 -0.2
v 0.6 1.1 -0.3
v 0.6 1.2 -0.2
v 0.6 1.2 -0.3
v 0.6 1.2 -0.4
v 0.6 1.3 -0.3
v 0.6 1.3 -0.4
v 0.6 1.3 -0.6
v 0.6 1.4 -0.4
v 0.6 1.4 -0.6
v 0.7 0.8 -0.5
v 0.7 0.8 -0.7
v 0.7 0.9 -0.4
v 0.7 0.9 -0.5
v 0.7 0.9 -0.6
v 0.7 0.9 -0.7
v 0.7 0.9 -0.8
v 0.7 1 -0.3
v 0.7 1 -0.4
v 0.7 1 -0.5
v 0.7 1 -0.6
v 0.7 1.1 -0.5
v 0.7 1.1 -0.6
v 0.7 1.2 -0.3
v 0.7 1.2 -0.4
v 0.7 1.2 -0.5
v 0.7 1.2 -0.7
v 0.7 1.2 -0.8
v 0.7 1.3 -0.4
v 0.7 1.3 -0.7
v 0.8 0.9 -0.5
v 0.8 0.9 -0.6
v 0.8 0.9 -0.7
v 0.8 1 -0.5
v 0.8 1 -0.6
v 0.8 1.1 -0.5
v 0.8 1.1 -0.6
v 0.8 1.2 -0.5
v 0.8 1.2 -0.7
v 1 0.6 -0.5
v 1 0.6 -0.6
v 1 0.7 -0.5
v 1 0.7 -0.6
v 0.2 1.1 -0.2
v 0.2 1.2 -0.2
v 0.6 1.1 -0.2
v 0.6 1.2 -0.2
v -0.7 0.7 -0.3
v -0.7 0.8 -0.3
v -0.3 0.6 -0.3
v -0.3 0.7 -0.3
v -0.2 0.5 -0.3
v -0.2 0.6 -0.3
v -0.2 0.7 -0.3
v -0.1 0.5 -0.3
v -0.1 0.7 -0.3
v 0 0.7 -0.3
v 0 0.8 -0.3
v 0.1 1 -0.3
v 0.1 1.2 -0.3
v 0.2 1 -0.3
v 0.2 1.1 -0.3
v 0.2 1.2 -0.3
v 0.2 1.3 -0.3
v 0.4 1 -0.3
v 0.4 1.1 -0.3
v 0.5 1 -0.3
v 0.5 1.1 -0.3
v 0.6 1 -0.3
v 0.6 1.1 -0.3
v 0.6 1.2 -0.3
v 0.6 1.3 -0.3
v 0.7 1 -0.3
v 0.7 1.2 -0.3
v 0 1.1 -0.4
v 0 1.2 -0.4
v 0.1 0.9 -0.4
v 0.1 1 -0.4
v 0.1 1.1 -0.4
v 0.1 1.2 -0.4
v 0.1 1.3 -0.4
v 0.2 0.3 -0.4
v 0.2 0.4 -0.4
v 0.2 0.7 -0.4
v 0.2 0.8 -0.4
v 0.2 0.9 -0.4
v 0.2 1 -0.4
v 0.2 1.1 -0.4
v 0.2 1.2 -0.4
v 0.2 1.3 -0.4
v 0.2 1.4 -0.4
v 0.3 0.9 -0.4
v 0.3 1 -0.4
v 0.4 1 -0.4
v 0.4 1.1 -0.4
v 0.5 0.9 -0.4
v 0.5 1 -0.4
v 0.5 1.1 -0.4
v 0.6 0.3 -0.4
v 0.6 0.4 -0.4
v 0.6 0.7 -0.4
v 0.6 0.8 -0.4
v 0.6 0.9 -0.4
v 0.6 1 -0.4
v 0.6 1.1 -0.4
v 0.6 1.2 -0.4
v 0.6 1.3 -0.4
v 0.6 1.4 -0.4
v 0.7 0.9 -0.4
v 0.7 1 -0.4
v 0.7 1.2 -0.4
v 0.7 1.3 -0.4
v -0.1 0.6 -0.5
v -0.1 0.7 -0.5
v 0 0.7 -0.5
v 0 0.9 -0.5
v 0 1 -0.5
v 0.1 0.8 -0.5
v 0.1 0.9 -0.5
v 0.1 1 -0.5
v 0.2 0 -0.5
v 0.2 0.1 -0.5
v 0.2 0.3 -0.5
v 0.2 0.6 -0.5
v 0.2 0.7 -0.5
v 0.2 0.8 -0.5
v 0.2 0.9 -0.5
v 0.3 0 -0.5
v 0.3 0.1 -0.5
v 0.3 0.3 -0.5
v 0.5 0 -0.5
v 0.5 0.1 -0.5
v 0.5 0.3 -0.5
v 0.6 0 -0.5
v 0.6 0.1 -0.5
v 0.6 0.3 -0.5
v 0.6 0.6 -0.5
v 0.6 0.7 -0.5
v 0.6 0.8 -0.5
v 0.6 0.9 -0.5
v 0.7 0.8 -0.5
v 0.7 0.9 -0.5
v 0.7 1 -0.5
v 0.7 1.1 -0.5
v 0.7 1.2 -0.5
v 0.8 0.9 -0.5
v 0.8 1 -0.5
v 0.8 1.1 -0.5
v 0.8 1.2 -0.5
v 0.9 0.6 -0.5
v 0.9 0.7 -0.5
v 1 0.6 -0.5
v 1 0.7 -0.5
v 0 1 -0.6
v 0 1.1 -0.6
v 0.1 1 -0.6
v 0.1 1.1 -0.6
v 0.7 1 -0.6
v 0.7 1.1 -0.6
v 0.8 1 -0.6
v 0.8 1.1 -0.6
v -0.7 0.7 -0.5
v -0.7 0.8 -0.5
v -0.3 0.6 -0.5
v -0.3 0.7 -0.5
v -0.2 0.5 -0.5
v -0.2 0.6 -0.5
v -0.2 0.7 -0.5
v -0.1 0.5 -0.5
v -0.1 0.6 -0.5
v -0.1 0.7 -0.5
v 0 0.7 -0.5
v 0 0.8 -0.5
v -0.2 0.6 -0.6
v -0.2 0.7 -0.6
v -0.1 0.6 -0.6
v -0.1 0.7 -0.6
v 0.2 0 -0.6
v 0.2 0.1 -0.6
v 0.2 0.3 -0.6
v 0.2 0.6 -0.6
v 0.2 0.7 -0.6
v 0.2 1.3 -0.6
v 0.2 1.4 -0.6
v 0.3 0 -0.6
v 0.3 0.1 -0.6
v 0.3 0.3 -0.6
v 0.5 0 -0.6
v 0.5 0.1 -0.6
v 0.5 0.3 -0.6
v 0.6 0 -0.6
v 0.6 0.1 -0.6
v 0.6 0.3 -0.6
v 0.6 0.6 -0.6
v 0.6 0.7 -0.6
v 0.6 1.3 -0.6
v 0.6 1.4 -0.6
v 0.9 0.6 -0.6
v 0.9 0.7 -0.6
v 1 0.6 -0.6
v 1 0.7 -0.6
v 0 0.9 -0.7
v 0 1.2 -0.7
v 0.1 0.8 -0.7
v 0.1 0.9 -0.7
v 0.1 1.2 -0.7
v 0.1 1.3 -0.7
v 0.2 0.3 -0.7
v 0.2 0.4 -0.7
v 0.2 0.7 -0.7
v 0.2 0.8 -0.7
v 0.2 0.9 -0.7
v 0.6 0.3 -0.7
v 0.6 0.4 -0.7
v 0.6 0.7 -0.7
v 0.6 0.8 -0.7
v 0.6 0.9 -0.7
v 0.7 0.8 -0.7
v 0.7 0.9 -0.7
v 0.7 1.2 -0.7
v 0.7 1.3 -0.7
v 0.8 0.9 -0.7
v 0.8 1.2 -0.7
v 0.1 0.9 -0.8
v 0.1 1.2 -0.8
v 0.2 0.8 -0.8
v 0.2 0.9 -0.8
v 0.6 0.8 -0.8
v 0.6 0.9 -0.8
v 0.7 0.9 -0.8
v 0.7 1.2 -0.8
v 0.2 0 -0.5
v 0.3 0 -0.5
v 0.5 0 -0.5
v 0.6 0 -0.5
v 0.2 0 -0.6
v 0.3 0 -0.6
v 0.5 0 -0.6
v 0.6 0 -0.6
v 0.2 0.3 -0.4
v 0.6 0.3 -0.4
v 0.2 0.3 -0.5
v 0.3 0.3 -0.5
v 0.5 0.3 -0.5
v 0.6 0.3 -0.5
v 0.2 0.3 -0.6
v 0.3 0.3 -0.6
v 0.5 0.3 -0.6
v 0.6 0.3 -0.6
v 0.2 0.3 -0.7
v 0.6 0.3 -0.7
v -0.2 0.5 -0.3
v -0.1 0.5 -0.3
v -0.2 0.5 -0.4
v -0.1 0.5 -0.4
v -0.2 0.5 -0.5
v -0.1 0.5 -0.5
v -0.3 0.6 -0.3
v -0.2 0.6 -0.3
v -0.2 0.6 -0.4
v -0.3 0.6 -0.5
v -0.2 0.6 -0.5
v -0.1 0.6 -0.5
v 0.2 0.6 -0.5
v 0.6 0.6 -0.5
v 0.9 0.6 -0.5
v 1 0.6 -0.5
v -0.2 0.6 -0.6
v -0.1 0.6 -0.6
v 0.2 0.6 -0.6
v 0.6 0.6 -0.6
v 0.9 0.6 -0.6
v 1 0.6 -0.6
v -0.7 0.7 -0.3
v -0.3 0.7 -0.3
v -0.1 0.7 -0.3
v 0 0.7 -0.3
v -0.1 0.7 -0.4
v -0.7 0.7 -0.5
v -0.3 0.7 -0.5
v -0.1 0.7 -0.5
v 0 0.7 -0.5
v 0.1 0.8 -0.5
v 0.2 0.8 -0.5
v 0.6 0.8 -0.5
v 0.7 0.8 -0.5
v 0.1 0.8 -0.7
v 0.2 0.8 -0.7
v 0.6 0.8 -0.7
v 0.7 0.8 -0.7
v 0.2 0.8 -0.8
v 0.6 0.8 -0.8
v 0.1 0.9 -0.4
v 0.2 0.9 -0.4
v 0.6 0.9 -0.4
v 0.7 0.9 -0.4
v 0 0.9 -0.5
v 0.1 0.9 -0.5
v 0.2 0.9 -0.5
v 0.6 0.9 -0.5
v 0.7 0.9 -0.5
v 0.8 0.9 -0.5
v 0 0.9 -0.6
v 0.1 0.9 -0.6
v 0.7 0.9 -0.6
v 0.8 0.9 -0.6
v 0 0.9 -0.7
v 0.1 0.9 -0.7
v 0.2 0.9 -0.7
v 0.6 0.9 -0.7
v 0.7 0.9 -0.7
v 0.8 0.9 -0.7
v 0.1 0.9 -0.8
v 0.2 0.9 -0.8
v 0.6 0.9 -0.8
v 0.7 0.9 -0.8
v 0.1 1 -0.3
v 0.2 1 -0.3
v 0.4 1 -0.3
v 0.5 1 -0.3
v 0.6 1 -0.3
v 0.7 1 -0.3
v 0.1 1 -0.4
v 0.2 1 -0.4
v 0.4 1 -0.4
v 0.5 1 -0.4
v 0.6 1 -0.4
v 0.7 1 -0.4
v 0.2 1.1 -0.2
v 0.6 1.1 -0.2
v 0.2 1.1 -0.3
v 0.4 1.1 -0.3
v 0.5 1.1 -0.3
v 0.6 1.1 -0.3
v 0 1.1 -0.4
v 0.1 1.1 -0.4
v 0.2 1.1 -0.4
v 0.4 1.1 -0.4
v 0.5 1.1 -0.4
v 0.6 1.1 -0.4
v 0.7 1.1 -0.5
v 0.8 1.1 -0.5
v 0 1.1 -0.6
v 0.1 1.1 -0.6
v 0.7 1.1 -0.6
v 0.8 1.1 -0.6
v -0.2 0.7 -0.5
v -0.1 0.7 -0.5
v 0 0.7 -0.5
v 0.2 0.7 -0.5
v 0.6 0.7 -0.5
v 0.9 0.7 -0.5
v 1 0.7 -0.5
v -0.2 0.7 -0.6
v -0.1 0.7 -0.6
v 0.2 0.7 -0.6
v 0.6 0.7 -0.6
v 0.9 0.7 -0.6
v 1 0.7 -0.6
v -0.7 0.8 -0.3
v 0 0.8 -0.3
v -0.7 0.8 -0.5
v 0 0.8 -0.5
v 0 1 -0.5
v 0.1 1 -0.5
v 0.7 1 -0.5
v 0.8 1 -0.5
v 0 1 -0.6
v 0.1 1 -0.6
v 0.7 1 -0.6
v 0.8 1 -0.6
v 0.2 1.2 -0.2
v 0.6 1.2 -0.2
v 0.1 1.2 -0.3
v 0.2 1.2 -0.3
v 0.6 1.2 -0.3
v 0.7 1.2 -0.3
v 0 1.2 -0.4
v 0.1 1.2 -0.4
v 0.2 1.2 -0.4
v 0.6 1.2 -0.4
v 0.7 1.2 -0.4
v 0.7 1.2 -0.5
v 0.8 1.2 -0.5
v 0 1.2 -0.7
v 0.1 1.2 -0.7
v 0.7 1.2 -0.7
v 0.8 1.2 -0.7
v 0.1 1.2 -0.8
v 0.7 1.2 -0.8
v 0.2 1.3 -0.3
v 0.6 1.3 -0.3
v 0.1 1.3 -0.4
v 0.2 1.3 -0.4
v 0.6 1.3 -0.4
v 0.7 1.3 -0.4
v 0.2 1.3 -0.6
v 0.6 1.3 -0.6
v 0.1 1.3 -0.7
v 0.7 1.3 -0.7
v 0.2 1.4 -0.4
v 0.6 1.4 -0.4
v 0.2 1.4 -0.6
v 0.6 1.4 -0.6

# faces
f 3/7/1 2/7/1 1/7/1
f 4/7/1 2/7/1 3/7/1
f 7/7/1 6/7/1 5/7/1
f 8/7/1 6/7/1 7/7/1
f 12/5/1 10/5/1 9/5/1
f 13/7/1 11/7/1 10/7/1
f 13/5/1 10/5/1 12/5/1
f 14/7/1 11/7/1 13/7/1
f 16/3/1 15/3/1 14/3/1
f 17/3/1 15/3/1 16/3/1
f 21/3/1 19/3/1 18/3/1
f 22/2/1 20/2/1 19/2/1
f 22/3/1 19/3/1 21/3/1
f 24/2/1 20/2/1 22/2/1
f 25/2/1 24/2/1 23/2/1
f 26/2/1 20/2/1 24/2/1
f 26/2/1 24/2/1 25/2/1
f 30/2/1 28/2/1 27/2/1
f 31/2/1 28/2/1 30/2/1
f 32/2/1 28/2/1 31/2/1
f 35/2/1 30/2/1 29/2/1
f 36/2/1 30/2/1 35/2/1
f 38/2/1 35/2/1 34/2/1
f 38/2/1 37/2/1 36/2/1
f 38/2/1 36/2/1 35/2/1
f 39/2/1 37/2/1 38/2/1
f 40/2/1 38/2/1 34/2/1
f 41/2/1 38/2/1 40/2/1
f 42/2/1 33/2/1 32/2/1
f 43/2/1 33/2/1 42/2/1
f 44/2/1 42/2/1 41/2/1
f 45/2/1 42/2/1 44/2/1
f 48/4/1 47/4/1 46/4/1
f 49/4/1 47/4/1 48/4/1
f 51/5/1 49/5/1 48/5/1
f 52/5/1 49/5/1 51/5/1
f 54/5/1 52/5/1 51/5/1
f 54/5/1 53/5/1 52/5/1
f 54/5/1 51/5/1 50/5/1
f 55/5/1 53/5/1 54/5/1
f 56/6/1 55/6/1 54/6/1
f 57/6/1 55/6/1 56/6/1
f 58/6/1 56/6/1 54/6/1
f 59/6/1 56/6/1 58/6/1
f 60/6/1 55/6/1 57/6/1
f 61/6/1 55/6/1 60/6/1
f 62/1/1 59/1/1 58/1/1
f 62/1/1 60/1/1 59/1/1
f 62/1/1 61/1/1 60/1/1
f 63/1/1 61/1/1 62/1/1
f 64/1/1 61/1/1 63/1/1
f 66/3/1 63/3/1 62/3/1
f 67/3/1 63/3/1 66/3/1
f 68/2/1 65/2/1 64/2/1
f 69/2/1 65/2/1 68/2/1
f 72/2/1 71/2/1 70/2/1
f 73/2/1 71/2/1 72/2/1
f 75/2/1 74/2/1 73/2/1
f 76/2/1 74/2/1 75/2/1
f 78/2/1 77/2/1 76/2/1
f 79/2/1 77/2/1 78/2/1
f 82/2/1 81/2/1 80/2/1
f 83/2/1 81/2/1 82/2/1
f 86/4/1 85/4/1 84/4/1
f 87/4/1 85/4/1 86/4/1
f 88/5/1 87/5/1 86/5/1
f 89/5/1 87/5/1 88/5/1
f 92/2/1 91/2/1 90/2/1
f 93/2/1 91/2/1 92/2/1
f 95/7/2 96/7/2 97/7/2
f 94/5/2 95/5/2 98/5/2
f 95/7/2 97/7/2 99/7/2
f 98/5/2 95/5/2 99/5/2
f 99/7/2 97/7/2 100/7/2
f 101/7/2 102/7/2 103/7/2
f 103/7/2 102/7/2 104/7/2
f 105/2/2 106/2/2 107/2/2
f 107/2/2 106/2/2 108/2/2
f 109/4/2 110/4/2 111/4/2
f 111/4/2 110/4/2 112/4/2
f 111/5/2 112/5/2 113/5/2
f 113/5/2 112/5/2 114/5/2
f 115/2/2 116/2/2 117/2/2
f 117/2/2 116/2/2 118/2/2
f 119/4/2 120/4/2 121/4/2
f 121/4/2 120/4/2 122/4/2
f 121/5/2 122/5/2 124/5/2
f 124/5/2 122/5/2 125/5/2
f 124/5/2 125/5/2 127/5/2
f 125/5/2 126/5/2 127/5/2
f 123/5/2 124/5/2 127/5/2
f 127/5/2 126/5/2 128/5/2
f 127/6/2 128/6/2 129/6/2
f 129/6/2 128/6/2 130/6/2
f 127/6/2 129/6/2 131/6/2
f 131/6/2 129/6/2 132/6/2
f 130/6/2 128/6/2 133/6/2
f 133/6/2 128/6/2 134/6/2
f 131/1/2 132/1/2 135/1/2
f 132/1/2 133/1/2 135/1/2
f 133/1/2 134/1/2 135/1/2
f 135/1/2 134/1/2 136/1/2
f 136/1/2 134/1/2 137/1/2
f 135/3/2 136/3/2 139/3/2
f 139/3/2 136/3/2 140/3/2
f 137/2/2 138/2/2 141/2/2
f 141/2/2 138/2/2 142/2/2
f 143/2/2 144/2/2 145/2/2
f 145/2/2 144/2/2 146/2/2
f 146/2/2 147/2/2 148/2/2
f 148/2/2 147/2/2 149/2/2
f 149/2/2 150/2/2 151/2/2
f 151/2/2 150/2/2 152/2/2
f 153/2/2 154/2/2 156/2/2
f 156/2/2 154/2/2 157/2/2
f 157/2/2 154/2/2 158/2/2
f 155/2/2 156/2/2 161/2/2
f 161/2/2 156/2/2 162/2/2
f 160/2/2 161/2/2 164/2/2
f 162/2/2 163/2/2 164/2/2
f 161/2/2 162/2/2 164/2/2
f 164/2/2 163/2/2 165/2/2
f 160/2/2 164/2/2 166/2/2
f 166/2/2 164/2/2 167/2/2
f 167/2/2 164/2/2 168/2/2
f 158/2/2 159/2/2 169/2/2
f 169/2/2 159/2/2 170/2/2
f 167/2/2 168/2/2 171/2/2
f 168/2/2 169/2/2 171/2/2
f 171/2/2 169/2/2 172/2/2
f 173/3/2 174/3/2 176/3/2
f 174/2/2 175/2/2 177/2/2
f 176/3/2 174/3/2 177/3/2
f 177/2/2 175/2/2 179/2/2
f 178/2/2 179/2/2 180/2/2
f 179/2/2 175/2/2 181/2/2
f 180/2/2 179/2/2 181/2/2
f 182/3/2 183/3/2 184/3/2
f 184/3/2 183/3/2 185/3/2
f 188/2/3 187/2/3 186/2/3
f 189/2/3 187/2/3 188/2/3
f 193/7/3 191/7/3 190/7/3
f 195/7/3 193/7/3 192/7/3
f 196/7/3 191/7/3 193/7/3
f 196/7/3 193/7/3 195/7/3
f 197/5/3 195/5/3 194/5/3
f 197/5/3 196/5/3 195/5/3
f 198/7/3 191/7/3 196/7/3
f 198/5/3 196/5/3 197/5/3
f 199/7/3 191/7/3 198/7/3
f 200/7/3 191/7/3 199/7/3
f 203/2/3 202/2/3 201/2/3
f 204/2/3 202/2/3 203/2/3
f 205/2/3 202/2/3 204/2/3
f 209/2/3 208/2/3 207/2/3
f 210/2/3 208/2/3 209/2/3
f 213/2/3 206/2/3 205/2/3
f 214/2/3 206/2/3 213/2/3
f 215/2/3 212/2/3 211/2/3
f 215/2/3 213/2/3 212/2/3
f 216/2/3 213/2/3 215/2/3
f 221/2/3 218/2/3 217/2/3
f 222/2/3 218/2/3 221/2/3
f 228/2/3 220/2/3 219/2/3
f 229/2/3 220/2/3 228/2/3
f 231/2/3 223/2/3 222/2/3
f 232/2/3 223/2/3 231/2/3
f 234/3/3 228/3/3 227/3/3
f 234/7/3 229/7/3 228/7/3
f 235/3/3 230/3/3 229/3/3
f 235/7/3 229/7/3 234/7/3
f 236/3/3 235/3/3 234/3/3
f 236/3/3 230/3/3 235/3/3
f 237/3/3 230/3/3 236/3/3
f 238/3/3 234/3/3 227/3/3
f 238/3/3 236/3/3 234/3/3
f 239/3/3 236/3/3 238/3/3
f 241/5/3 225/5/3 224/5/3
f 242/6/3 226/6/3 225/6/3
f 242/5/3 225/5/3 241/5/3
f 243/1/3 227/1/3 226/1/3
f 243/6/3 226/6/3 242/6/3
f 244/3/3 238/3/3 227/3/3
f 244/1/3 227/1/3 243/1/3
f 245/7/3 239/7/3 238/7/3
f 245/3/3 238/3/3 244/3/3
f 246/3/3 240/3/3 239/3/3
f 246/7/3 239/7/3 245/7/3
f 247/3/3 240/3/3 246/3/3
f 249/2/3 233/2/3 232/2/3
f 250/2/3 233/2/3 249/2/3
f 251/2/3 246/2/3 245/2/3
f 252/2/3 246/2/3 251/2/3
f 253/2/3 249/2/3 248/2/3
f 254/2/3 249/2/3 253/2/3
f 257/6/3 256/6/3 255/6/3
f 261/3/3 259/3/3 258/3/3
f 262/3/3 259/3/3 261/3/3
f 266/6/3 257/6/3 255/6/3
f 267/6/3 257/6/3 266/6/3
f 268/2/3 261/2/3 260/2/3
f 269/2/3 261/2/3 268/2/3
f 270/4/3 264/4/3 263/4/3
f 271/5/3 265/5/3 264/5/3
f 271/4/3 264/4/3 270/4/3
f 272/5/3 265/5/3 271/5/3
f 276/4/3 274/4/3 273/4/3
f 277/5/3 275/5/3 274/5/3
f 277/4/3 274/4/3 276/4/3
f 278/5/3 275/5/3 277/5/3
f 283/2/3 282/2/3 281/2/3
f 284/2/3 282/2/3 283/2/3
f 288/3/3 285/3/3 284/3/3
f 289/3/3 285/3/3 288/3/3
f 290/2/3 287/2/3 286/2/3
f 291/2/3 287/2/3 290/2/3
f 292/6/3 280/6/3 279/6/3
f 293/6/3 280/6/3 292/6/3
f 294/3/3 293/3/3 292/3/3
f 295/3/3 293/3/3 294/3/3
f 298/2/3 297/2/3 296/2/3
f 299/2/3 297/2/3 298/2/3
f 302/2/3 301/2/3 300/2/3
f 303/2/3 301/2/3 302/2/3
f 304/7/4 305/7/4 307/7/4
f 306/7/4 307/7/4 309/7/4
f 307/7/4 305/7/4 310/7/4
f 309/7/4 307/7/4 310/7/4
f 308/7/4 309/7/4 311/7/4
f 311/7/4 309/7/4 312/7/4
f 310/7/4 305/7/4 313/7/4
f 313/7/4 305/7/4 314/7/4
f 314/7/4 305/7/4 315/7/4
f 316/3/4 317/3/4 318/3/4
f 318/3/4 317/3/4 319/3/4
f 318/6/4 319/6/4 323/6/4
f 323/6/4 319/6/4 324/6/4
f 320/4/4 321/4/4 327/4/4
f 321/5/4 322/5/4 328/5/4
f 327/4/4 321/4/4 328/4/4
f 328/5/4 322/5/4 329/5/4
f 330/4/4 331/4/4 333/4/4
f 331/5/4 332/5/4 334/5/4
f 333/4/4 331/4/4 334/4/4
f 334/5/4 332/5/4 335/5/4
f 325/2/4 326/2/4 338/2/4
f 338/2/4 326/2/4 339/2/4
f 336/6/4 337/6/4 340/6/4
f 340/6/4 337/6/4 341/6/4
f 340/3/4 341/3/4 342/3/4
f 342/3/4 341/3/4 343/3/4
f 344/2/4 345/2/4 347/2/4
f 347/2/4 345/2/4 348/2/4
f 346/2/4 347/2/4 353/2/4
f 353/2/4 347/2/4 354/2/4
f 350/5/4 351/5/4 355/5/4
f 351/6/4 352/6/4 356/6/4
f 355/5/4 351/5/4 356/5/4
f 352/1/4 353/1/4 357/1/4
f 356/6/4 352/6/4 357/6/4
f 357/1/4 353/1/4 358/1/4
f 358/2/4 359/2/4 360/2/4
f 360/2/4 359/2/4 361/2/4
f 348/2/4 349/2/4 362/2/4
f 362/2/4 349/2/4 363/2/4
f 361/2/4 362/2/4 364/2/4
f 364/2/4 362/2/4 365/2/4
f 366/2/4 367/2/4 369/2/4
f 368/2/4 369/2/4 370/2/4
f 369/2/4 367/2/4 371/2/4
f 370/2/4 369/2/4 371/2/4
f 371/2/4 367/2/4 372/2/4
f 372/2/4 367/2/4 373/2/4
f 378/4/5 375/4/5 374/4/5
f 379/4/5 375/4/5 378/4/5
f 380/4/5 377/4/5 376/4/5
f 381/4/5 377/4/5 380/4/5
f 384/5/5 383/5/5 382/5/5
f 385/5/5 383/5/5 384/5/5
f 386/5/5 383/5/5 385/5/5
f 387/5/5 383/5/5 386/5/5
f 389/5/5 386/5/5 385/5/5
f 390/5/5 386/5/5 389/5/5
f 392/5/5 389/5/5 388/5/5
f 392/5/5 391/5/5 390/5/5
f 392/5/5 390/5/5 389/5/5
f 393/5/5 391/5/5 392/5/5
f 396/5/5 395/5/5 394/5/5
f 397/5/5 395/5/5 396/5/5
f 398/7/5 397/7/5 396/7/5
f 399/7/5 397/7/5 398/7/5
f 402/7/5 401/7/5 400/7/5
f 403/7/5 402/7/5 400/7/5
f 404/7/5 402/7/5 403/7/5
f 410/3/5 405/3/5 404/3/5
f 411/6/5 406/6/5 405/6/5
f 411/3/5 405/3/5 410/3/5
f 412/6/5 406/6/5 411/6/5
f 413/6/5 408/6/5 407/6/5
f 414/3/5 409/3/5 408/3/5
f 414/6/5 408/6/5 413/6/5
f 415/3/5 409/3/5 414/3/5
f 420/7/5 419/7/5 418/7/5
f 421/7/5 417/7/5 416/7/5
f 422/7/5 417/7/5 421/7/5
f 423/7/5 419/7/5 420/7/5
f 424/7/5 419/7/5 423/7/5
f 429/2/5 426/2/5 425/2/5
f 430/2/5 426/2/5 429/2/5
f 431/2/5 428/2/5 427/2/5
f 432/2/5 428/2/5 431/2/5
f 433/2/5 431/2/5 430/2/5
f 434/2/5 431/2/5 433/2/5
f 440/2/5 436/2/5 435/2/5
f 441/2/5 436/2/5 440/2/5
f 442/2/5 438/2/5 437/2/5
f 443/2/5 438/2/5 442/2/5
f 445/3/5 440/3/5 439/3/5
f 446/3/5 440/3/5 445/3/5
f 447/3/5 444/3/5 443/3/5
f 448/3/5 444/3/5 447/3/5
f 449/2/5 446/2/5 445/2/5
f 450/2/5 446/2/5 449/2/5
f 453/2/5 448/2/5 447/2/5
f 454/2/5 448/2/5 453/2/5
f 455/2/5 451/2/5 450/2/5
f 456/2/5 451/2/5 455/2/5
f 457/2/5 453/2/5 452/2/5
f 458/2/5 453/2/5 457/2/5
f 465/2/5 460/2/5 459/2/5
f 466/2/5 460/2/5 465/2/5
f 467/2/5 462/2/5 461/2/5
f 468/2/5 462/2/5 467/2/5
f 469/2/5 464/2/5 463/2/5
f 470/2/5 464/2/5 469/2/5
f 473/2/5 472/2/5 471/2/5
f 474/2/5 472/2/5 473/2/5
f 475/2/5 472/2/5 474/2/5
f 476/2/5 472/2/5 475/2/5
f 479/2/5 474/2/5 473/2/5
f 480/2/5 474/2/5 479/2/5
f 481/2/5 476/2/5 475/2/5
f 482/2/5 476/2/5 481/2/5
f 485/2/5 478/2/5 477/2/5
f 486/2/5 478/2/5 485/2/5
f 487/2/5 484/2/5 483/2/5
f 488/2/5 484/2/5 487/2/5
f 489/3/6 490/3/6 496/3/6
f 490/6/6 491/6/6 497/6/6
f 496/3/6 490/3/6 497/3/6
f 491/6/6 492/6/6 497/6/6
f 497/6/6 492/6/6 498/6/6
f 493/6/6 494/6/6 499/6/6
f 494/3/6 495/3/6 500/3/6
f 499/6/6 494/6/6 500/6/6
f 500/3/6 495/3/6 501/3/6
f 502/7/6 503/7/6 504/7/6
f 504/7/6 503/7/6 505/7/6
f 506/3/6 507/3/6 510/3/6
f 510/3/6 507/3/6 511/3/6
f 508/3/6 509/3/6 512/3/6
f 512/3/6 509/3/6 513/3/6
f 514/2/6 515/2/6 517/2/6
f 517/2/6 515/2/6 518/2/6
f 516/2/6 517/2/6 521/2/6
f 521/2/6 517/2/6 522/2/6
f 518/2/6 519/2/6 523/2/6
f 523/2/6 519/2/6 524/2/6
f 520/2/6 521/2/6 527/2/6
f 527/2/6 521/2/6 528/2/6
f 525/2/6 526/2/6 529/2/6
f 529/2/6 526/2/6 530/2/6
f 528/2/6 529/2/6 531/2/6
f 531/2/6 529/2/6 532/2/6
f 533/2/6 534/2/6 536/2/6
f 536/2/6 534/2/6 537/2/6
f 535/2/6 536/2/6 539/2/6
f 537/2/6 538/2/6 540/2/6
f 535/2/6 539/2/6 541/2/6
f 539/2/6 540/2/6 541/2/6
f 540/2/6 538/2/6 542/2/6
f 541/2/6 540/2/6 542/2/6
f 543/2/6 544/2/6 545/2/6
f 545/2/6 544/2/6 546/2/6
