# MagicaVoxel @ Ephtracy

# group
o 

# material
mtllib pLAYER.mtl
usemtl palette

# normals
vn -1 0 0
vn 1 0 0
vn 0 0 1
vn 0 0 -1
vn 0 -1 0
vn 0 1 0

# texcoords
vt 0.169922 0.5
vt 0.533203 0.5
vt 0.841797 0.5
vt 0.869141 0.5
vt 0.970703 0.5
vt 0.974609 0.5
vt 0.978516 0.5
vt 0.982422 0.5
vt 0.994141 0.5

# verts
v -0.3 0.7 -0.4
v -0.3 0.7 -0.5
v -0.3 0.8 -0.4
v -0.3 0.8 -0.5
v -0.2 0.5 -0.4
v -0.2 0.5 -0.5
v -0.2 0.6 -0.5
v -0.2 0.6 -0.6
v -0.2 0.7 -0.3
v -0.2 0.7 -0.4
v -0.2 0.7 -0.5
v -0.2 0.7 -0.6
v -0.2 0.8 -0.3
v -0.2 0.8 -0.4
v -0.2 0.8 -0.5
v -0.2 0.8 -0.6
v -0.2 1.2 -0.4
v -0.2 1.2 -0.5
v 0 0.9 -0.5
v 0 0.9 -0.6
v 0 0.9 -0.7
v 0 1 -0.5
v 0 1 -0.6
v 0 1.1 -0.4
v 0 1.1 -0.6
v 0 1.2 -0.4
v 0 1.2 -0.7
v 0.1 0.8 -0.5
v 0.1 0.8 -0.7
v 0.1 0.9 -0.4
v 0.1 0.9 -0.5
v 0.1 0.9 -0.6
v 0.1 0.9 -0.7
v 0.1 0.9 -0.8
v 0.1 1 -0.3
v 0.1 1 -0.4
v 0.1 1 -0.5
v 0.1 1 -0.6
v 0.1 1.1 -0.4
v 0.1 1.1 -0.6
v 0.1 1.2 -0.3
v 0.1 1.2 -0.4
v 0.1 1.2 -0.7
v 0.1 1.2 -0.8
v 0.1 1.3 -0.4
v 0.1 1.3 -0.7
v 0.2 0 -0.5
v 0.2 0 -0.6
v 0.2 0.1 -0.5
v 0.2 0.1 -0.6
v 0.2 0.3 -0.4
v 0.2 0.3 -0.5
v 0.2 0.3 -0.6
v 0.2 0.3 -0.7
v 0.2 0.4 -0.4
v 0.2 0.4 -0.7
v 0.2 0.6 -0.5
v 0.2 0.6 -0.6
v 0.2 0.7 -0.4
v 0.2 0.7 -0.5
v 0.2 0.7 -0.6
v 0.2 0.7 -0.7
v 0.2 0.8 -0.4
v 0.2 0.8 -0.5
v 0.2 0.8 -0.7
v 0.2 0.8 -0.8
v 0.2 0.9 -0.4
v 0.2 0.9 -0.5
v 0.2 0.9 -0.7
v 0.2 0.9 -0.8
v 0.2 1.1 -0.2
v 0.2 1.1 -0.3
v 0.2 1.2 -0.2
v 0.2 1.2 -0.3
v 0.2 1.2 -0.4
v 0.2 1.3 -0.3
v 0.2 1.3 -0.4
v 0.2 1.3 -0.6
v 0.2 1.4 -0.4
v 0.2 1.4 -0.6
v 0.4 1 -0.3
v 0.4 1 -0.4
v 0.4 1.1 -0.3
v 0.4 1.1 -0.4
v 0.5 0 -0.5
v 0.5 0 -0.6
v 0.5 0.1 -0.5
v 0.5 0.1 -0.6
v 0.5 0.3 -0.5
v 0.5 0.3 -0.6
v 0.6 1 -0.3
v 0.6 1 -0.4
v 0.6 1.1 -0.3
v 0.6 1.1 -0.4
v -0.1 0.5 -0.4
v -0.1 0.5 -0.5
v -0.1 0.6 -0.5
v -0.1 0.7 -0.3
v -0.1 0.7 -0.4
v -0.1 0.7 -0.5
v -0.1 0.7 -0.6
v -0.1 0.8 -0.3
v -0.1 0.8 -0.4
v -0.1 0.8 -0.5
v -0.1 0.8 -0.6
v -0.1 1.2 -0.4
v -0.1 1.2 -0.5
v 0 0.7 -0.4
v 0 0.7 -0.5
v 0 0.8 -0.4
v 0 0.8 -0.5
v 0.2 1 -0.3
v 0.2 1 -0.4
v 0.2 1.1 -0.3
v 0.2 1.1 -0.4
v 0.3 0 -0.5
v 0.3 0 -0.6
v 0.3 0.1 -0.5
v 0.3 0.1 -0.6
v 0.3 0.3 -0.5
v 0.3 0.3 -0.6
v 0.5 1 -0.3
v 0.5 1 -0.4
v 0.5 1.1 -0.3
v 0.5 1.1 -0.4
v 0.6 0 -0.5
v 0.6 0 -0.6
v 0.6 0.1 -0.5
v 0.6 0.1 -0.6
v 0.6 0.3 -0.4
v 0.6 0.3 -0.5
v 0.6 0.3 -0.6
v 0.6 0.3 -0.7
v 0.6 0.4 -0.4
v 0.6 0.4 -0.7
v 0.6 0.6 -0.5
v 0.6 0.6 -0.6
v 0.6 0.7 -0.4
v 0.6 0.7 -0.5
v 0.6 0.7 -0.6
v 0.6 0.7 -0.7
v 0.6 0.8 -0.4
v 0.6 0.8 -0.5
v 0.6 0.8 -0.7
v 0.6 0.8 -0.8
v 0.6 0.9 -0.4
v 0.6 0.9 -0.5
v 0.6 0.9 -0.7
v 0.6 0.9 -0.8
v 0.6 1.1 -0.2
v 0.6 1.1 -0.3
v 0.6 1.2 -0.2
v 0.6 1.2 -0.3
v 0.6 1.2 -0.4
v 0.6 1.3 -0.3
v 0.6 1.3 -0.4
v 0.6 1.3 -0.6
v 0.6 1.4 -0.4
v 0.6 1.4 -0.6
v 0.7 0.8 -0.5
v 0.7 0.8 -0.7
v 0.7 0.9 -0.4
v 0.7 0.9 -0.5
v 0.7 0.9 -0.6
v 0.7 0.9 -0.7
v 0.7 0.9 -0.8
v 0.7 1 -0.3
v 0.7 1 -0.4
v 0.7 1 -0.5
v 0.7 1 -0.6
v 0.7 1.1 -0.5
v 0.7 1.1 -0.6
v 0.7 1.2 -0.3
v 0.7 1.2 -0.4
v 0.7 1.2 -0.5
v 0.7 1.2 -0.7
v 0.7 1.2 -0.8
v 0.7 1.3 -0.4
v 0.7 1.3 -0.7
v 0.8 0.9 -0.5
v 0.8 0.9 -0.6
v 0.8 0.9 -0.7
v 0.8 1 -0.5
v 0.8 1 -0.6
v 0.8 1.1 -0.5
v 0.8 1.1 -0.6
v 0.8 1.2 -0.5
v 0.8 1.2 -0.7
v 1 0.6 -0.5
v 1 0.6 -0.6
v 1 0.7 -0.5
v 1 0.7 -0.6
v 0.2 1.1 -0.2
v 0.2 1.2 -0.2
v 0.6 1.1 -0.2
v 0.6 1.2 -0.2
v -0.2 0.7 -0.3
v -0.2 0.8 -0.3
v -0.1 0.7 -0.3
v -0.1 0.8 -0.3
v 0.1 1 -0.3
v 0.1 1.2 -0.3
v 0.2 1 -0.3
v 0.2 1.1 -0.3
v 0.2 1.2 -0.3
v 0.2 1.3 -0.3
v 0.4 1 -0.3
v 0.4 1.1 -0.3
v 0.5 1 -0.3
v 0.5 1.1 -0.3
v 0.6 1 -0.3
v 0.6 1.1 -0.3
v 0.6 1.2 -0.3
v 0.6 1.3 -0.3
v 0.7 1 -0.3
v 0.7 1.2 -0.3
v -0.3 0.7 -0.4
v -0.3 0.8 -0.4
v -0.2 0.5 -0.4
v -0.2 0.7 -0.4
v -0.2 0.8 -0.4
v -0.2 1.2 -0.4
v -0.1 0.5 -0.4
v -0.1 0.7 -0.4
v -0.1 0.8 -0.4
v -0.1 1.2 -0.4
v 0 0.7 -0.4
v 0 0.8 -0.4
v 0 1.1 -0.4
v 0 1.2 -0.4
v 0.1 0.9 -0.4
v 0.1 1 -0.4
v 0.1 1.1 -0.4
v 0.1 1.2 -0.4
v 0.1 1.3 -0.4
v 0.2 0.3 -0.4
v 0.2 0.4 -0.4
v 0.2 0.7 -0.4
v 0.2 0.8 -0.4
v 0.2 0.9 -0.4
v 0.2 1 -0.4
v 0.2 1.1 -0.4
v 0.2 1.2 -0.4
v 0.2 1.3 -0.4
v 0.2 1.4 -0.4
v 0.3 0.9 -0.4
v 0.3 1 -0.4
v 0.4 1 -0.4
v 0.4 1.1 -0.4
v 0.5 0.9 -0.4
v 0.5 1 -0.4
v 0.5 1.1 -0.4
v 0.6 0.3 -0.4
v 0.6 0.4 -0.4
v 0.6 0.7 -0.4
v 0.6 0.8 -0.4
v 0.6 0.9 -0.4
v 0.6 1 -0.4
v 0.6 1.1 -0.4
v 0.6 1.2 -0.4
v 0.6 1.3 -0.4
v 0.6 1.4 -0.4
v 0.7 0.9 -0.4
v 0.7 1 -0.4
v 0.7 1.2 -0.4
v 0.7 1.3 -0.4
v -0.1 0.6 -0.5
v -0.1 0.7 -0.5
v 0 0.7 -0.5
v 0 0.9 -0.5
v 0 1 -0.5
v 0.1 0.8 -0.5
v 0.1 0.9 -0.5
v 0.1 1 -0.5
v 0.2 0 -0.5
v 0.2 0.1 -0.5
v 0.2 0.3 -0.5
v 0.2 0.6 -0.5
v 0.2 0.7 -0.5
v 0.2 0.8 -0.5
v 0.2 0.9 -0.5
v 0.3 0 -0.5
v 0.3 0.1 -0.5
v 0.3 0.3 -0.5
v 0.5 0 -0.5
v 0.5 0.1 -0.5
v 0.5 0.3 -0.5
v 0.6 0 -0.5
v 0.6 0.1 -0.5
v 0.6 0.3 -0.5
v 0.6 0.6 -0.5
v 0.6 0.7 -0.5
v 0.6 0.8 -0.5
v 0.6 0.9 -0.5
v 0.7 0.8 -0.5
v 0.7 0.9 -0.5
v 0.7 1 -0.5
v 0.7 1.1 -0.5
v 0.7 1.2 -0.5
v 0.8 0.9 -0.5
v 0.8 1 -0.5
v 0.8 1.1 -0.5
v 0.8 1.2 -0.5
v 0.9 0.6 -0.5
v 0.9 0.7 -0.5
v 1 0.6 -0.5
v 1 0.7 -0.5
v 0 1 -0.6
v 0 1.1 -0.6
v 0.1 1 -0.6
v 0.1 1.1 -0.6
v 0.7 1 -0.6
v 0.7 1.1 -0.6
v 0.8 1 -0.6
v 0.8 1.1 -0.6
v -0.3 0.7 -0.5
v -0.3 0.8 -0.5
v -0.2 0.5 -0.5
v -0.2 0.6 -0.5
v -0.2 0.7 -0.5
v -0.2 0.8 -0.5
v -0.2 1.2 -0.5
v -0.1 0.5 -0.5
v -0.1 0.6 -0.5
v -0.1 0.7 -0.5
v -0.1 0.8 -0.5
v -0.1 1.2 -0.5
v 0 0.7 -0.5
v 0 0.8 -0.5
v -0.2 0.6 -0.6
v -0.2 0.7 -0.6
v -0.2 0.8 -0.6
v -0.1 0.6 -0.6
v -0.1 0.7 -0.6
v -0.1 0.8 -0.6
v 0.2 0 -0.6
v 0.2 0.1 -0.6
v 0.2 0.3 -0.6
v 0.2 0.6 -0.6
v 0.2 0.7 -0.6
v 0.2 1.3 -0.6
v 0.2 1.4 -0.6
v 0.3 0 -0.6
v 0.3 0.1 -0.6
v 0.3 0.3 -0.6
v 0.5 0 -0.6
v 0.5 0.1 -0.6
v 0.5 0.3 -0.6
v 0.6 0 -0.6
v 0.6 0.1 -0.6
v 0.6 0.3 -0.6
v 0.6 0.6 -0.6
v 0.6 0.7 -0.6
v 0.6 1.3 -0.6
v 0.6 1.4 -0.6
v 0.9 0.6 -0.6
v 0.9 0.7 -0.6
v 1 0.6 -0.6
v 1 0.7 -0.6
v 0 0.9 -0.7
v 0 1.2 -0.7
v 0.1 0.8 -0.7
v 0.1 0.9 -0.7
v 0.1 1.2 -0.7
v 0.1 1.3 -0.7
v 0.2 0.3 -0.7
v 0.2 0.4 -0.7
v 0.2 0.7 -0.7
v 0.2 0.8 -0.7
v 0.2 0.9 -0.7
v 0.6 0.3 -0.7
v 0.6 0.4 -0.7
v 0.6 0.7 -0.7
v 0.6 0.8 -0.7
v 0.6 0.9 -0.7
v 0.7 0.8 -0.7
v 0.7 0.9 -0.7
v 0.7 1.2 -0.7
v 0.7 1.3 -0.7
v 0.8 0.9 -0.7
v 0.8 1.2 -0.7
v 0.1 0.9 -0.8
v 0.1 1.2 -0.8
v 0.2 0.8 -0.8
v 0.2 0.9 -0.8
v 0.6 0.8 -0.8
v 0.6 0.9 -0.8
v 0.7 0.9 -0.8
v 0.7 1.2 -0.8
v 0.2 0 -0.5
v 0.3 0 -0.5
v 0.5 0 -0.5
v 0.6 0 -0.5
v 0.2 0 -0.6
v 0.3 0 -0.6
v 0.5 0 -0.6
v 0.6 0 -0.6
v 0.2 0.3 -0.4
v 0.6 0.3 -0.4
v 0.2 0.3 -0.5
v 0.3 0.3 -0.5
v 0.5 0.3 -0.5
v 0.6 0.3 -0.5
v 0.2 0.3 -0.6
v 0.3 0.3 -0.6
v 0.5 0.3 -0.6
v 0.6 0.3 -0.6
v 0.2 0.3 -0.7
v 0.6 0.3 -0.7
v -0.2 0.5 -0.4
v -0.1 0.5 -0.4
v -0.2 0.5 -0.5
v -0.1 0.5 -0.5
v -0.2 0.6 -0.5
v -0.1 0.6 -0.5
v 0.2 0.6 -0.5
v 0.6 0.6 -0.5
v 0.9 0.6 -0.5
v 1 0.6 -0.5
v -0.2 0.6 -0.6
v -0.1 0.6 -0.6
v 0.2 0.6 -0.6
v 0.6 0.6 -0.6
v 0.9 0.6 -0.6
v 1 0.6 -0.6
v -0.2 0.7 -0.3
v -0.1 0.7 -0.3
v -0.3 0.7 -0.4
v -0.2 0.7 -0.4
v -0.1 0.7 -0.4
v 0 0.7 -0.4
v -0.3 0.7 -0.5
v -0.2 0.7 -0.5
v -0.1 0.7 -0.5
v 0 0.7 -0.5
v 0.1 0.8 -0.5
v 0.2 0.8 -0.5
v 0.6 0.8 -0.5
v 0.7 0.8 -0.5
v 0.1 0.8 -0.7
v 0.2 0.8 -0.7
v 0.6 0.8 -0.7
v 0.7 0.8 -0.7
v 0.2 0.8 -0.8
v 0.6 0.8 -0.8
v 0.1 0.9 -0.4
v 0.2 0.9 -0.4
v 0.6 0.9 -0.4
v 0.7 0.9 -0.4
v 0 0.9 -0.5
v 0.1 0.9 -0.5
v 0.2 0.9 -0.5
v 0.6 0.9 -0.5
v 0.7 0.9 -0.5
v 0.8 0.9 -0.5
v 0 0.9 -0.6
v 0.1 0.9 -0.6
v 0.7 0.9 -0.6
v 0.8 0.9 -0.6
v 0 0.9 -0.7
v 0.1 0.9 -0.7
v 0.2 0.9 -0.7
v 0.6 0.9 -0.7
v 0.7 0.9 -0.7
v 0.8 0.9 -0.7
v 0.1 0.9 -0.8
v 0.2 0.9 -0.8
v 0.6 0.9 -0.8
v 0.7 0.9 -0.8
v 0.1 1 -0.3
v 0.2 1 -0.3
v 0.4 1 -0.3
v 0.5 1 -0.3
v 0.6 1 -0.3
v 0.7 1 -0.3
v 0.1 1 -0.4
v 0.2 1 -0.4
v 0.4 1 -0.4
v 0.5 1 -0.4
v 0.6 1 -0.4
v 0.7 1 -0.4
v 0.2 1.1 -0.2
v 0.6 1.1 -0.2
v 0.2 1.1 -0.3
v 0.4 1.1 -0.3
v 0.5 1.1 -0.3
v 0.6 1.1 -0.3
v 0 1.1 -0.4
v 0.1 1.1 -0.4
v 0.2 1.1 -0.4
v 0.4 1.1 -0.4
v 0.5 1.1 -0.4
v 0.6 1.1 -0.4
v 0.7 1.1 -0.5
v 0.8 1.1 -0.5
v 0 1.1 -0.6
v 0.1 1.1 -0.6
v 0.7 1.1 -0.6
v 0.8 1.1 -0.6
v -0.1 0.7 -0.5
v 0 0.7 -0.5
v 0.2 0.7 -0.5
v 0.6 0.7 -0.5
v 0.9 0.7 -0.5
v 1 0.7 -0.5
v -0.1 0.7 -0.6
v 0.2 0.7 -0.6
v 0.6 0.7 -0.6
v 0.9 0.7 -0.6
v 1 0.7 -0.6
v -0.2 0.8 -0.3
v -0.1 0.8 -0.3
v -0.3 0.8 -0.4
v -0.2 0.8 -0.4
v -0.1 0.8 -0.4
v 0 0.8 -0.4
v -0.3 0.8 -0.5
v -0.2 0.8 -0.5
v -0.1 0.8 -0.5
v 0 0.8 -0.5
v -0.2 0.8 -0.6
v -0.1 0.8 -0.6
v 0 1 -0.5
v 0.1 1 -0.5
v 0.7 1 -0.5
v 0.8 1 -0.5
v 0 1 -0.6
v 0.1 1 -0.6
v 0.7 1 -0.6
v 0.8 1 -0.6
v 0.2 1.2 -0.2
v 0.6 1.2 -0.2
v 0.1 1.2 -0.3
v 0.2 1.2 -0.3
v 0.6 1.2 -0.3
v 0.7 1.2 -0.3
v -0.2 1.2 -0.4
v -0.1 1.2 -0.4
v 0 1.2 -0.4
v 0.1 1.2 -0.4
v 0.2 1.2 -0.4
v 0.6 1.2 -0.4
v 0.7 1.2 -0.4
v -0.2 1.2 -0.5
v -0.1 1.2 -0.5
v 0.7 1.2 -0.5
v 0.8 1.2 -0.5
v 0 1.2 -0.7
v 0.1 1.2 -0.7
v 0.7 1.2 -0.7
v 0.8 1.2 -0.7
v 0.1 1.2 -0.8
v 0.7 1.2 -0.8
v 0.2 1.3 -0.3
v 0.6 1.3 -0.3
v 0.1 1.3 -0.4
v 0.2 1.3 -0.4
v 0.6 1.3 -0.4
v 0.7 1.3 -0.4
v 0.2 1.3 -0.6
v 0.6 1.3 -0.6
v 0.1 1.3 -0.7
v 0.7 1.3 -0.7
v 0.2 1.4 -0.4
v 0.6 1.4 -0.4
v 0.2 1.4 -0.6
v 0.6 1.4 -0.6

# faces
f 3/2/1 2/2/1 1/2/1
f 4/2/1 2/2/1 3/2/1
f 7/2/1 6/2/1 5/2/1
f 10/2/1 7/2/1 5/2/1
f 11/5/1 8/5/1 7/5/1
f 11/2/1 7/2/1 10/2/1
f 12/5/1 8/5/1 11/5/1
f 13/2/1 10/2/1 9/2/1
f 14/2/1 10/2/1 13/2/1
f 15/2/1 12/2/1 11/2/1
f 16/2/1 12/2/1 15/2/1
f 17/1/1 15/1/1 14/1/1
f 18/1/1 15/1/1 17/1/1
f 22/5/1 20/5/1 19/5/1
f 23/4/1 21/4/1 20/4/1
f 23/5/1 20/5/1 22/5/1
f 25/4/1 21/4/1 23/4/1
f 26/4/1 25/4/1 24/4/1
f 27/4/1 21/4/1 25/4/1
f 27/4/1 25/4/1 26/4/1
f 31/4/1 29/4/1 28/4/1
f 32/4/1 29/4/1 31/4/1
f 33/4/1 29/4/1 32/4/1
f 36/4/1 31/4/1 30/4/1
f 37/4/1 31/4/1 36/4/1
f 39/4/1 36/4/1 35/4/1
f 39/4/1 38/4/1 37/4/1
f 39/4/1 37/4/1 36/4/1
f 40/4/1 38/4/1 39/4/1
f 41/4/1 39/4/1 35/4/1
f 42/4/1 39/4/1 41/4/1
f 43/4/1 34/4/1 33/4/1
f 44/4/1 34/4/1 43/4/1
f 45/4/1 43/4/1 42/4/1
f 46/4/1 43/4/1 45/4/1
f 49/6/1 48/6/1 47/6/1
f 50/6/1 48/6/1 49/6/1
f 52/7/1 50/7/1 49/7/1
f 53/7/1 50/7/1 52/7/1
f 55/7/1 53/7/1 52/7/1
f 55/7/1 54/7/1 53/7/1
f 55/7/1 52/7/1 51/7/1
f 56/7/1 54/7/1 55/7/1
f 57/8/1 56/8/1 55/8/1
f 58/8/1 56/8/1 57/8/1
f 59/8/1 57/8/1 55/8/1
f 60/8/1 57/8/1 59/8/1
f 61/8/1 56/8/1 58/8/1
f 62/8/1 56/8/1 61/8/1
f 63/3/1 60/3/1 59/3/1
f 63/3/1 61/3/1 60/3/1
f 63/3/1 62/3/1 61/3/1
f 64/3/1 62/3/1 63/3/1
f 65/3/1 62/3/1 64/3/1
f 67/5/1 64/5/1 63/5/1
f 68/5/1 64/5/1 67/5/1
f 69/4/1 66/4/1 65/4/1
f 70/4/1 66/4/1 69/4/1
f 73/4/1 72/4/1 71/4/1
f 74/4/1 72/4/1 73/4/1
f 76/4/1 75/4/1 74/4/1
f 77/4/1 75/4/1 76/4/1
f 79/4/1 78/4/1 77/4/1
f 80/4/1 78/4/1 79/4/1
f 83/4/1 82/4/1 81/4/1
f 84/4/1 82/4/1 83/4/1
f 87/6/1 86/6/1 85/6/1
f 88/6/1 86/6/1 87/6/1
f 89/7/1 88/7/1 87/7/1
f 90/7/1 88/7/1 89/7/1
f 93/4/1 92/4/1 91/4/1
f 94/4/1 92/4/1 93/4/1
f 95/2/2 96/2/2 97/2/2
f 95/2/2 97/2/2 99/2/2
f 99/2/2 97/2/2 100/2/2
f 98/2/2 99/2/2 102/2/2
f 102/2/2 99/2/2 103/2/2
f 100/2/2 101/2/2 104/2/2
f 104/2/2 101/2/2 105/2/2
f 103/1/2 104/1/2 106/1/2
f 106/1/2 104/1/2 107/1/2
f 108/2/2 109/2/2 110/2/2
f 110/2/2 109/2/2 111/2/2
f 112/4/2 113/4/2 114/4/2
f 114/4/2 113/4/2 115/4/2
f 116/6/2 117/6/2 118/6/2
f 118/6/2 117/6/2 119/6/2
f 118/7/2 119/7/2 120/7/2
f 120/7/2 119/7/2 121/7/2
f 122/4/2 123/4/2 124/4/2
f 124/4/2 123/4/2 125/4/2
f 126/6/2 127/6/2 128/6/2
f 128/6/2 127/6/2 129/6/2
f 128/7/2 129/7/2 131/7/2
f 131/7/2 129/7/2 132/7/2
f 131/7/2 132/7/2 134/7/2
f 132/7/2 133/7/2 134/7/2
f 130/7/2 131/7/2 134/7/2
f 134/7/2 133/7/2 135/7/2
f 134/8/2 135/8/2 136/8/2
f 136/8/2 135/8/2 137/8/2
f 134/8/2 136/8/2 138/8/2
f 138/8/2 136/8/2 139/8/2
f 137/8/2 135/8/2 140/8/2
f 140/8/2 135/8/2 141/8/2
f 138/3/2 139/3/2 142/3/2
f 139/3/2 140/3/2 142/3/2
f 140/3/2 141/3/2 142/3/2
f 142/3/2 141/3/2 143/3/2
f 143/3/2 141/3/2 144/3/2
f 142/5/2 143/5/2 146/5/2
f 146/5/2 143/5/2 147/5/2
f 144/4/2 145/4/2 148/4/2
f 148/4/2 145/4/2 149/4/2
f 150/4/2 151/4/2 152/4/2
f 152/4/2 151/4/2 153/4/2
f 153/4/2 154/4/2 155/4/2
f 155/4/2 154/4/2 156/4/2
f 156/4/2 157/4/2 158/4/2
f 158/4/2 157/4/2 159/4/2
f 160/4/2 161/4/2 163/4/2
f 163/4/2 161/4/2 164/4/2
f 164/4/2 161/4/2 165/4/2
f 162/4/2 163/4/2 168/4/2
f 168/4/2 163/4/2 169/4/2
f 167/4/2 168/4/2 171/4/2
f 169/4/2 170/4/2 171/4/2
f 168/4/2 169/4/2 171/4/2
f 171/4/2 170/4/2 172/4/2
f 167/4/2 171/4/2 173/4/2
f 173/4/2 171/4/2 174/4/2
f 174/4/2 171/4/2 175/4/2
f 165/4/2 166/4/2 176/4/2
f 176/4/2 166/4/2 177/4/2
f 174/4/2 175/4/2 178/4/2
f 175/4/2 176/4/2 178/4/2
f 178/4/2 176/4/2 179/4/2
f 180/5/2 181/5/2 183/5/2
f 181/4/2 182/4/2 184/4/2
f 183/5/2 181/5/2 184/5/2
f 184/4/2 182/4/2 186/4/2
f 185/4/2 186/4/2 187/4/2
f 186/4/2 182/4/2 188/4/2
f 187/4/2 186/4/2 188/4/2
f 189/5/2 190/5/2 191/5/2
f 191/5/2 190/5/2 192/5/2
f 195/4/3 194/4/3 193/4/3
f 196/4/3 194/4/3 195/4/3
f 199/2/3 198/2/3 197/2/3
f 200/2/3 198/2/3 199/2/3
f 203/4/3 202/4/3 201/4/3
f 204/4/3 202/4/3 203/4/3
f 205/4/3 202/4/3 204/4/3
f 209/4/3 208/4/3 207/4/3
f 210/4/3 208/4/3 209/4/3
f 213/4/3 206/4/3 205/4/3
f 214/4/3 206/4/3 213/4/3
f 215/4/3 212/4/3 211/4/3
f 215/4/3 213/4/3 212/4/3
f 216/4/3 213/4/3 215/4/3
f 220/2/3 218/2/3 217/2/3
f 221/2/3 218/2/3 220/2/3
f 223/2/3 220/2/3 219/2/3
f 224/2/3 220/2/3 223/2/3
f 225/1/3 222/1/3 221/1/3
f 226/1/3 222/1/3 225/1/3
f 227/2/3 225/2/3 224/2/3
f 228/2/3 225/2/3 227/2/3
f 233/4/3 230/4/3 229/4/3
f 234/4/3 230/4/3 233/4/3
f 240/4/3 232/4/3 231/4/3
f 241/4/3 232/4/3 240/4/3
f 243/4/3 235/4/3 234/4/3
f 244/4/3 235/4/3 243/4/3
f 246/5/3 240/5/3 239/5/3
f 246/9/3 241/9/3 240/9/3
f 247/5/3 242/5/3 241/5/3
f 247/9/3 241/9/3 246/9/3
f 248/5/3 247/5/3 246/5/3
f 248/5/3 242/5/3 247/5/3
f 249/5/3 242/5/3 248/5/3
f 250/5/3 246/5/3 239/5/3
f 250/5/3 248/5/3 246/5/3
f 251/5/3 248/5/3 250/5/3
f 253/7/3 237/7/3 236/7/3
f 254/8/3 238/8/3 237/8/3
f 254/7/3 237/7/3 253/7/3
f 255/3/3 239/3/3 238/3/3
f 255/8/3 238/8/3 254/8/3
f 256/5/3 250/5/3 239/5/3
f 256/3/3 239/3/3 255/3/3
f 257/9/3 251/9/3 250/9/3
f 257/5/3 250/5/3 256/5/3
f 258/5/3 252/5/3 251/5/3
f 258/9/3 251/9/3 257/9/3
f 259/5/3 252/5/3 258/5/3
f 261/4/3 245/4/3 244/4/3
f 262/4/3 245/4/3 261/4/3
f 263/4/3 258/4/3 257/4/3
f 264/4/3 258/4/3 263/4/3
f 265/4/3 261/4/3 260/4/3
f 266/4/3 261/4/3 265/4/3
f 269/8/3 268/8/3 267/8/3
f 273/5/3 271/5/3 270/5/3
f 274/5/3 271/5/3 273/5/3
f 278/8/3 269/8/3 267/8/3
f 279/8/3 269/8/3 278/8/3
f 280/4/3 273/4/3 272/4/3
f 281/4/3 273/4/3 280/4/3
f 282/6/3 276/6/3 275/6/3
f 283/7/3 277/7/3 276/7/3
f 283/6/3 276/6/3 282/6/3
f 284/7/3 277/7/3 283/7/3
f 288/6/3 286/6/3 285/6/3
f 289/7/3 287/7/3 286/7/3
f 289/6/3 286/6/3 288/6/3
f 290/7/3 287/7/3 289/7/3
f 295/4/3 294/4/3 293/4/3
f 296/4/3 294/4/3 295/4/3
f 300/5/3 297/5/3 296/5/3
f 301/5/3 297/5/3 300/5/3
f 302/4/3 299/4/3 298/4/3
f 303/4/3 299/4/3 302/4/3
f 304/8/3 292/8/3 291/8/3
f 305/8/3 292/8/3 304/8/3
f 306/5/3 305/5/3 304/5/3
f 307/5/3 305/5/3 306/5/3
f 310/4/3 309/4/3 308/4/3
f 311/4/3 309/4/3 310/4/3
f 314/4/3 313/4/3 312/4/3
f 315/4/3 313/4/3 314/4/3
f 316/2/4 317/2/4 320/2/4
f 320/2/4 317/2/4 321/2/4
f 318/2/4 319/2/4 323/2/4
f 323/2/4 319/2/4 324/2/4
f 321/1/4 322/1/4 326/1/4
f 326/1/4 322/1/4 327/1/4
f 325/2/4 326/2/4 328/2/4
f 328/2/4 326/2/4 329/2/4
f 330/5/4 331/5/4 333/5/4
f 331/2/4 332/2/4 334/2/4
f 333/5/4 331/5/4 334/5/4
f 334/2/4 332/2/4 335/2/4
f 333/8/4 334/8/4 339/8/4
f 339/8/4 334/8/4 340/8/4
f 336/6/4 337/6/4 343/6/4
f 337/7/4 338/7/4 344/7/4
f 343/6/4 337/6/4 344/6/4
f 344/7/4 338/7/4 345/7/4
f 346/6/4 347/6/4 349/6/4
f 347/7/4 348/7/4 350/7/4
f 349/6/4 347/6/4 350/6/4
f 350/7/4 348/7/4 351/7/4
f 341/4/4 342/4/4 354/4/4
f 354/4/4 342/4/4 355/4/4
f 352/8/4 353/8/4 356/8/4
f 356/8/4 353/8/4 357/8/4
f 356/5/4 357/5/4 358/5/4
f 358/5/4 357/5/4 359/5/4
f 360/4/4 361/4/4 363/4/4
f 363/4/4 361/4/4 364/4/4
f 362/4/4 363/4/4 369/4/4
f 369/4/4 363/4/4 370/4/4
f 366/7/4 367/7/4 371/7/4
f 367/8/4 368/8/4 372/8/4
f 371/7/4 367/7/4 372/7/4
f 368/3/4 369/3/4 373/3/4
f 372/8/4 368/8/4 373/8/4
f 373/3/4 369/3/4 374/3/4
f 374/4/4 375/4/4 376/4/4
f 376/4/4 375/4/4 377/4/4
f 364/4/4 365/4/4 378/4/4
f 378/4/4 365/4/4 379/4/4
f 377/4/4 378/4/4 380/4/4
f 380/4/4 378/4/4 381/4/4
f 382/4/4 383/4/4 385/4/4
f 384/4/4 385/4/4 386/4/4
f 385/4/4 383/4/4 387/4/4
f 386/4/4 385/4/4 387/4/4
f 387/4/4 383/4/4 388/4/4
f 388/4/4 383/4/4 389/4/4
f 394/6/5 391/6/5 390/6/5
f 395/6/5 391/6/5 394/6/5
f 396/6/5 393/6/5 392/6/5
f 397/6/5 393/6/5 396/6/5
f 400/7/5 399/7/5 398/7/5
f 401/7/5 399/7/5 400/7/5
f 402/7/5 399/7/5 401/7/5
f 403/7/5 399/7/5 402/7/5
f 405/7/5 402/7/5 401/7/5
f 406/7/5 402/7/5 405/7/5
f 408/7/5 405/7/5 404/7/5
f 408/7/5 407/7/5 406/7/5
f 408/7/5 406/7/5 405/7/5
f 409/7/5 407/7/5 408/7/5
f 412/2/5 411/2/5 410/2/5
f 413/2/5 411/2/5 412/2/5
f 420/5/5 415/5/5 414/5/5
f 421/8/5 416/8/5 415/8/5
f 421/5/5 415/5/5 420/5/5
f 422/8/5 416/8/5 421/8/5
f 423/8/5 418/8/5 417/8/5
f 424/5/5 419/5/5 418/5/5
f 424/8/5 418/8/5 423/8/5
f 425/5/5 419/5/5 424/5/5
f 429/2/5 427/2/5 426/2/5
f 430/2/5 427/2/5 429/2/5
f 432/2/5 429/2/5 428/2/5
f 433/2/5 429/2/5 432/2/5
f 434/2/5 431/2/5 430/2/5
f 435/2/5 431/2/5 434/2/5
f 440/4/5 437/4/5 436/4/5
f 441/4/5 437/4/5 440/4/5
f 442/4/5 439/4/5 438/4/5
f 443/4/5 439/4/5 442/4/5
f 444/4/5 442/4/5 441/4/5
f 445/4/5 442/4/5 444/4/5
f 451/4/5 447/4/5 446/4/5
f 452/4/5 447/4/5 451/4/5
f 453/4/5 449/4/5 448/4/5
f 454/4/5 449/4/5 453/4/5
f 456/5/5 451/5/5 450/5/5
f 457/5/5 451/5/5 456/5/5
f 458/5/5 455/5/5 454/5/5
f 459/5/5 455/5/5 458/5/5
f 460/4/5 457/4/5 456/4/5
f 461/4/5 457/4/5 460/4/5
f 464/4/5 459/4/5 458/4/5
f 465/4/5 459/4/5 464/4/5
f 466/4/5 462/4/5 461/4/5
f 467/4/5 462/4/5 466/4/5
f 468/4/5 464/4/5 463/4/5
f 469/4/5 464/4/5 468/4/5
f 476/4/5 471/4/5 470/4/5
f 477/4/5 471/4/5 476/4/5
f 478/4/5 473/4/5 472/4/5
f 479/4/5 473/4/5 478/4/5
f 480/4/5 475/4/5 474/4/5
f 481/4/5 475/4/5 480/4/5
f 484/4/5 483/4/5 482/4/5
f 485/4/5 483/4/5 484/4/5
f 486/4/5 483/4/5 485/4/5
f 487/4/5 483/4/5 486/4/5
f 490/4/5 485/4/5 484/4/5
f 491/4/5 485/4/5 490/4/5
f 492/4/5 487/4/5 486/4/5
f 493/4/5 487/4/5 492/4/5
f 496/4/5 489/4/5 488/4/5
f 497/4/5 489/4/5 496/4/5
f 498/4/5 495/4/5 494/4/5
f 499/4/5 495/4/5 498/4/5
f 500/8/6 501/8/6 506/8/6
f 501/8/6 502/8/6 506/8/6
f 506/8/6 502/8/6 507/8/6
f 503/8/6 504/8/6 508/8/6
f 504/5/6 505/5/6 509/5/6
f 508/8/6 504/8/6 509/8/6
f 509/5/6 505/5/6 510/5/6
f 511/2/6 512/2/6 514/2/6
f 514/2/6 512/2/6 515/2/6
f 513/2/6 514/2/6 517/2/6
f 517/2/6 514/2/6 518/2/6
f 515/2/6 516/2/6 519/2/6
f 519/2/6 516/2/6 520/2/6
f 518/2/6 519/2/6 521/2/6
f 521/2/6 519/2/6 522/2/6
f 523/5/6 524/5/6 527/5/6
f 527/5/6 524/5/6 528/5/6
f 525/5/6 526/5/6 529/5/6
f 529/5/6 526/5/6 530/5/6
f 531/4/6 532/4/6 534/4/6
f 534/4/6 532/4/6 535/4/6
f 533/4/6 534/4/6 540/4/6
f 540/4/6 534/4/6 541/4/6
f 535/4/6 536/4/6 542/4/6
f 542/4/6 536/4/6 543/4/6
f 537/1/6 538/1/6 544/1/6
f 544/1/6 538/1/6 545/1/6
f 539/4/6 540/4/6 548/4/6
f 548/4/6 540/4/6 549/4/6
f 546/4/6 547/4/6 550/4/6
f 550/4/6 547/4/6 551/4/6
f 549/4/6 550/4/6 552/4/6
f 552/4/6 550/4/6 553/4/6
f 554/4/6 555/4/6 557/4/6
f 557/4/6 555/4/6 558/4/6
f 556/4/6 557/4/6 560/4/6
f 558/4/6 559/4/6 561/4/6
f 556/4/6 560/4/6 562/4/6
f 560/4/6 561/4/6 562/4/6
f 561/4/6 559/4/6 563/4/6
f 562/4/6 561/4/6 563/4/6
f 564/4/6 565/4/6 566/4/6
f 566/4/6 565/4/6 567/4/6
