# MagicaVoxel @ Ephtracy

# group
o 

# material
mtllib Snipper.mtl
usemtl palette

# normals
vn -1 0 0
vn 1 0 0
vn 0 0 1
vn 0 0 -1
vn 0 -1 0
vn 0 1 0

# texcoords
vt 0.947266 0.5
vt 0.951172 0.5
vt 0.966797 0.5
vt 0.970703 0.5
vt 0.974609 0.5
vt 0.982422 0.5
vt 0.986328 0.5
vt 0.994141 0.5

# verts
v -0.7 0.6 0.2
v -0.7 0.6 0.1
v -0.7 0.6 0
v -0.7 0.7 0.5
v -0.7 0.7 0.2
v -0.7 0.7 0.1
v -0.7 0.7 0
v -0.7 0.8 0.5
v -0.7 0.8 0
v -0.3 0.9 0.2
v -0.3 0.9 -0.2
v -0.3 1 0.4
v -0.3 1 0.2
v -0.3 1.1 0.4
v -0.3 1.1 0.3
v -0.3 1.2 0.3
v -0.3 1.2 -0.2
v -0.2 0 0.1
v -0.2 0 0
v -0.2 0.1 0.1
v -0.2 0.1 0
v -0.2 0.3 0.2
v -0.2 0.3 0.1
v -0.2 0.3 0
v -0.2 0.3 -0.1
v -0.2 0.6 0.1
v -0.2 0.6 0
v -0.2 0.7 0.2
v -0.2 0.7 0.1
v -0.2 0.7 0
v -0.2 0.7 -0.1
v -0.2 0.8 0.2
v -0.2 0.8 0.1
v -0.2 0.8 -0.1
v -0.2 0.9 0.2
v -0.2 0.9 0.1
v -0.2 0.9 -0.1
v -0.2 1 0.5
v -0.2 1 0.4
v -0.2 1 -0.2
v -0.2 1 -0.3
v -0.2 1.1 0.5
v -0.2 1.1 0.4
v -0.2 1.1 -0.2
v -0.2 1.1 -0.3
v -0.2 1.2 0.2
v -0.2 1.2 -0.2
v -0.2 1.3 0.2
v -0.2 1.3 -0.2
v -0.1 0.7 0.3
v -0.1 0.7 0.2
v -0.1 0.8 0.3
v -0.1 0.8 0.2
v -0.1 0.9 0.3
v -0.1 0.9 0.2
v 0.1 0 0.1
v 0.1 0 0
v 0.1 0.1 0.1
v 0.1 0.1 0
v 0.1 0.3 0.1
v 0.1 0.3 0
v -0.6 0.6 0.2
v -0.6 0.6 0.1
v -0.6 0.7 0.5
v -0.6 0.7 0.2
v -0.6 0.7 0.1
v -0.6 0.7 0
v -0.6 0.8 0.5
v -0.6 0.8 0
v -0.1 0 0.1
v -0.1 0 0
v -0.1 0.1 0.1
v -0.1 0.1 0
v -0.1 0.3 0.1
v -0.1 0.3 0
v 0.1 0.7 0.3
v 0.1 0.7 0.2
v 0.1 0.8 0.3
v 0.1 0.8 0.2
v 0.1 0.9 0.3
v 0.1 0.9 0.2
v 0.2 0 0.1
v 0.2 0 0
v 0.2 0.1 0.1
v 0.2 0.1 0
v 0.2 0.3 0.2
v 0.2 0.3 0.1
v 0.2 0.3 0
v 0.2 0.3 -0.1
v 0.2 0.6 0.1
v 0.2 0.6 0
v 0.2 0.7 0.2
v 0.2 0.7 0.1
v 0.2 0.7 0
v 0.2 0.7 -0.1
v 0.2 0.8 0.2
v 0.2 0.8 0.1
v 0.2 0.8 -0.1
v 0.2 0.9 0.2
v 0.2 0.9 0.1
v 0.2 0.9 -0.1
v 0.2 1 0.5
v 0.2 1 0.4
v 0.2 1 -0.2
v 0.2 1 -0.3
v 0.2 1.1 0.5
v 0.2 1.1 0.4
v 0.2 1.1 -0.2
v 0.2 1.1 -0.3
v 0.2 1.2 0.2
v 0.2 1.2 -0.2
v 0.2 1.3 0.2
v 0.2 1.3 -0.2
v 0.3 0.9 0.2
v 0.3 0.9 -0.2
v 0.3 1 0.4
v 0.3 1 0.2
v 0.3 1.1 0.4
v 0.3 1.1 0.3
v 0.3 1.2 0.3
v 0.3 1.2 -0.2
v 0.7 0.6 0.1
v 0.7 0.6 0
v 0.7 0.7 0.1
v 0.7 0.7 0
v -0.7 0.7 0.5
v -0.7 0.8 0.5
v -0.6 0.7 0.5
v -0.6 0.8 0.5
v -0.2 1 0.5
v -0.2 1.1 0.5
v 0.2 1 0.5
v 0.2 1.1 0.5
v -0.3 1 0.4
v -0.3 1.1 0.4
v -0.2 1 0.4
v -0.2 1.1 0.4
v 0.2 1 0.4
v 0.2 1.1 0.4
v 0.3 1 0.4
v 0.3 1.1 0.4
v -0.3 1.1 0.3
v -0.3 1.2 0.3
v -0.1 0.7 0.3
v -0.1 0.8 0.3
v -0.1 0.9 0.3
v 0.1 0.7 0.3
v 0.1 0.8 0.3
v 0.1 0.9 0.3
v 0.3 1.1 0.3
v 0.3 1.2 0.3
v -0.7 0.6 0.2
v -0.7 0.7 0.2
v -0.6 0.6 0.2
v -0.6 0.7 0.2
v -0.3 0.9 0.2
v -0.3 1 0.2
v -0.2 0.3 0.2
v -0.2 0.7 0.2
v -0.2 0.8 0.2
v -0.2 0.9 0.2
v -0.2 1 0.2
v -0.2 1.2 0.2
v -0.2 1.3 0.2
v -0.1 0.7 0.2
v -0.1 0.8 0.2
v -0.1 0.9 0.2
v -0.1 1 0.2
v 0.1 0.7 0.2
v 0.1 0.8 0.2
v 0.1 0.9 0.2
v 0.1 1 0.2
v 0.2 0.3 0.2
v 0.2 0.7 0.2
v 0.2 0.8 0.2
v 0.2 0.9 0.2
v 0.2 1 0.2
v 0.2 1.2 0.2
v 0.2 1.3 0.2
v 0.3 0.9 0.2
v 0.3 1 0.2
v -0.6 0.6 0.1
v -0.6 0.7 0.1
v -0.2 0 0.1
v -0.2 0.1 0.1
v -0.2 0.3 0.1
v -0.2 0.6 0.1
v -0.2 0.7 0.1
v -0.1 0 0.1
v -0.1 0.1 0.1
v -0.1 0.3 0.1
v 0.1 0 0.1
v 0.1 0.1 0.1
v 0.1 0.3 0.1
v 0.2 0 0.1
v 0.2 0.1 0.1
v 0.2 0.3 0.1
v 0.2 0.6 0.1
v 0.2 0.7 0.1
v 0.6 0.6 0.1
v 0.6 0.7 0.1
v 0.7 0.6 0.1
v 0.7 0.7 0.1
v -0.7 0.6 0
v -0.7 0.7 0
v -0.7 0.8 0
v -0.6 0.6 0
v -0.6 0.7 0
v -0.6 0.8 0
v -0.2 0 0
v -0.2 0.1 0
v -0.2 0.3 0
v -0.2 0.6 0
v -0.2 0.7 0
v -0.1 0 0
v -0.1 0.1 0
v -0.1 0.3 0
v 0.1 0 0
v 0.1 0.1 0
v 0.1 0.3 0
v 0.2 0 0
v 0.2 0.1 0
v 0.2 0.3 0
v 0.2 0.6 0
v 0.2 0.7 0
v 0.6 0.6 0
v 0.6 0.7 0
v 0.7 0.6 0
v 0.7 0.7 0
v -0.2 0.3 -0.1
v -0.2 0.7 -0.1
v -0.2 0.8 -0.1
v -0.2 0.9 -0.1
v 0.2 0.3 -0.1
v 0.2 0.7 -0.1
v 0.2 0.8 -0.1
v 0.2 0.9 -0.1
v -0.3 0.9 -0.2
v -0.3 1.2 -0.2
v -0.2 1 -0.2
v -0.2 1.1 -0.2
v -0.2 1.2 -0.2
v -0.2 1.3 -0.2
v 0.2 1 -0.2
v 0.2 1.1 -0.2
v 0.2 1.2 -0.2
v 0.2 1.3 -0.2
v 0.3 0.9 -0.2
v 0.3 1.2 -0.2
v -0.2 1 -0.3
v -0.2 1.1 -0.3
v 0.2 1 -0.3
v 0.2 1.1 -0.3
v -0.2 0 0.1
v -0.1 0 0.1
v 0.1 0 0.1
v 0.2 0 0.1
v -0.2 0 0
v -0.1 0 0
v 0.1 0 0
v 0.2 0 0
v -0.2 0.3 0.2
v 0.2 0.3 0.2
v -0.2 0.3 0.1
v -0.1 0.3 0.1
v 0.1 0.3 0.1
v 0.2 0.3 0.1
v -0.2 0.3 0
v -0.1 0.3 0
v 0.1 0.3 0
v 0.2 0.3 0
v -0.2 0.3 -0.1
v 0.2 0.3 -0.1
v -0.7 0.6 0.2
v -0.6 0.6 0.2
v -0.7 0.6 0.1
v -0.6 0.6 0.1
v -0.2 0.6 0.1
v 0.2 0.6 0.1
v 0.6 0.6 0.1
v 0.7 0.6 0.1
v -0.7 0.6 0
v -0.6 0.6 0
v -0.2 0.6 0
v 0.2 0.6 0
v 0.6 0.6 0
v 0.7 0.6 0
v -0.7 0.7 0.5
v -0.6 0.7 0.5
v -0.1 0.7 0.3
v 0.1 0.7 0.3
v -0.7 0.7 0.2
v -0.6 0.7 0.2
v -0.1 0.7 0.2
v 0.1 0.7 0.2
v -0.3 0.9 0.2
v -0.2 0.9 0.2
v 0.2 0.9 0.2
v 0.3 0.9 0.2
v -0.2 0.9 0.1
v 0.2 0.9 0.1
v -0.2 0.9 -0.1
v 0.2 0.9 -0.1
v -0.3 0.9 -0.2
v 0.3 0.9 -0.2
v -0.2 1 0.5
v 0.2 1 0.5
v -0.3 1 0.4
v -0.2 1 0.4
v 0.2 1 0.4
v 0.3 1 0.4
v -0.3 1 0.2
v -0.2 1 0.2
v -0.1 1 0.2
v 0.1 1 0.2
v 0.2 1 0.2
v 0.3 1 0.2
v -0.2 1 -0.2
v 0.2 1 -0.2
v -0.2 1 -0.3
v 0.2 1 -0.3
v -0.6 0.7 0.1
v -0.2 0.7 0.1
v 0.2 0.7 0.1
v 0.6 0.7 0.1
v 0.7 0.7 0.1
v -0.6 0.7 0
v -0.2 0.7 0
v 0.2 0.7 0
v 0.6 0.7 0
v 0.7 0.7 0
v -0.7 0.8 0.5
v -0.6 0.8 0.5
v -0.7 0.8 0
v -0.6 0.8 0
v -0.1 0.9 0.3
v 0.1 0.9 0.3
v -0.1 0.9 0.2
v 0.1 0.9 0.2
v -0.2 1.1 0.5
v 0.2 1.1 0.5
v -0.3 1.1 0.4
v -0.2 1.1 0.4
v 0.2 1.1 0.4
v 0.3 1.1 0.4
v -0.3 1.1 0.3
v 0.3 1.1 0.3
v -0.2 1.1 -0.2
v 0.2 1.1 -0.2
v -0.2 1.1 -0.3
v 0.2 1.1 -0.3
v -0.3 1.2 0.3
v 0.3 1.2 0.3
v -0.2 1.2 0.2
v 0.2 1.2 0.2
v -0.3 1.2 -0.2
v -0.2 1.2 -0.2
v 0.2 1.2 -0.2
v 0.3 1.2 -0.2
v -0.2 1.3 0.2
v 0.2 1.3 0.2
v -0.2 1.3 -0.2
v 0.2 1.3 -0.2

# faces
f 5/8/1 2/8/1 1/8/1
f 6/4/1 3/4/1 2/4/1
f 6/8/1 2/8/1 5/8/1
f 7/4/1 3/4/1 6/4/1
f 8/8/1 5/8/1 4/8/1
f 8/8/1 6/8/1 5/8/1
f 8/8/1 7/8/1 6/8/1
f 9/8/1 7/8/1 8/8/1
f 13/7/1 11/7/1 10/7/1
f 14/7/1 13/7/1 12/7/1
f 15/7/1 13/7/1 14/7/1
f 16/7/1 13/7/1 15/7/1
f 17/7/1 11/7/1 13/7/1
f 17/7/1 13/7/1 16/7/1
f 20/6/1 19/6/1 18/6/1
f 21/6/1 19/6/1 20/6/1
f 23/7/1 21/7/1 20/7/1
f 24/7/1 21/7/1 23/7/1
f 26/2/1 24/2/1 23/2/1
f 26/2/1 25/2/1 24/2/1
f 26/2/1 23/2/1 22/2/1
f 27/2/1 25/2/1 26/2/1
f 28/2/1 26/2/1 22/2/1
f 29/2/1 26/2/1 28/2/1
f 30/2/1 25/2/1 27/2/1
f 31/2/1 25/2/1 30/2/1
f 32/1/1 29/1/1 28/1/1
f 32/1/1 30/1/1 29/1/1
f 32/1/1 31/1/1 30/1/1
f 33/1/1 31/1/1 32/1/1
f 34/1/1 31/1/1 33/1/1
f 35/5/1 33/5/1 32/5/1
f 36/6/1 34/6/1 33/6/1
f 36/5/1 33/5/1 35/5/1
f 37/6/1 34/6/1 36/6/1
f 42/7/1 39/7/1 38/7/1
f 43/7/1 39/7/1 42/7/1
f 44/7/1 41/7/1 40/7/1
f 45/7/1 41/7/1 44/7/1
f 48/7/1 47/7/1 46/7/1
f 49/7/1 47/7/1 48/7/1
f 52/1/1 51/1/1 50/1/1
f 53/1/1 51/1/1 52/1/1
f 54/7/1 53/7/1 52/7/1
f 55/7/1 53/7/1 54/7/1
f 58/6/1 57/6/1 56/6/1
f 59/6/1 57/6/1 58/6/1
f 60/7/1 59/7/1 58/7/1
f 61/7/1 59/7/1 60/7/1
f 62/8/2 63/8/2 65/8/2
f 65/8/2 63/8/2 66/8/2
f 64/8/2 65/8/2 68/8/2
f 66/8/2 67/8/2 68/8/2
f 65/8/2 66/8/2 68/8/2
f 68/8/2 67/8/2 69/8/2
f 70/6/2 71/6/2 72/6/2
f 72/6/2 71/6/2 73/6/2
f 72/7/2 73/7/2 74/7/2
f 74/7/2 73/7/2 75/7/2
f 76/1/2 77/1/2 78/1/2
f 78/1/2 77/1/2 79/1/2
f 78/7/2 79/7/2 80/7/2
f 80/7/2 79/7/2 81/7/2
f 82/6/2 83/6/2 84/6/2
f 84/6/2 83/6/2 85/6/2
f 84/7/2 85/7/2 87/7/2
f 87/7/2 85/7/2 88/7/2
f 87/2/2 88/2/2 90/2/2
f 88/2/2 89/2/2 90/2/2
f 86/2/2 87/2/2 90/2/2
f 90/2/2 89/2/2 91/2/2
f 86/2/2 90/2/2 92/2/2
f 92/2/2 90/2/2 93/2/2
f 91/2/2 89/2/2 94/2/2
f 94/2/2 89/2/2 95/2/2
f 92/1/2 93/1/2 96/1/2
f 93/1/2 94/1/2 96/1/2
f 94/1/2 95/1/2 96/1/2
f 96/1/2 95/1/2 97/1/2
f 97/1/2 95/1/2 98/1/2
f 96/5/2 97/5/2 99/5/2
f 97/6/2 98/6/2 100/6/2
f 99/5/2 97/5/2 100/5/2
f 100/6/2 98/6/2 101/6/2
f 102/7/2 103/7/2 106/7/2
f 106/7/2 103/7/2 107/7/2
f 104/7/2 105/7/2 108/7/2
f 108/7/2 105/7/2 109/7/2
f 110/7/2 111/7/2 112/7/2
f 112/7/2 111/7/2 113/7/2
f 114/7/2 115/7/2 117/7/2
f 116/7/2 117/7/2 118/7/2
f 118/7/2 117/7/2 119/7/2
f 119/7/2 117/7/2 120/7/2
f 117/7/2 115/7/2 121/7/2
f 120/7/2 117/7/2 121/7/2
f 122/4/2 123/4/2 124/4/2
f 124/4/2 123/4/2 125/4/2
f 128/8/3 127/8/3 126/8/3
f 129/8/3 127/8/3 128/8/3
f 132/7/3 131/7/3 130/7/3
f 133/7/3 131/7/3 132/7/3
f 136/7/3 135/7/3 134/7/3
f 137/7/3 135/7/3 136/7/3
f 140/7/3 139/7/3 138/7/3
f 141/7/3 139/7/3 140/7/3
f 147/1/3 145/1/3 144/1/3
f 148/7/3 146/7/3 145/7/3
f 148/1/3 145/1/3 147/1/3
f 149/7/3 146/7/3 148/7/3
f 150/7/3 143/7/3 142/7/3
f 151/7/3 143/7/3 150/7/3
f 154/8/3 153/8/3 152/8/3
f 155/8/3 153/8/3 154/8/3
f 161/7/3 157/7/3 156/7/3
f 162/7/3 157/7/3 161/7/3
f 165/1/3 160/1/3 159/1/3
f 165/2/3 159/2/3 158/2/3
f 166/5/3 161/5/3 160/5/3
f 166/1/3 160/1/3 165/1/3
f 167/3/3 162/3/3 161/3/3
f 167/5/3 161/5/3 166/5/3
f 168/3/3 162/3/3 167/3/3
f 169/2/3 165/2/3 158/2/3
f 171/6/3 168/6/3 167/6/3
f 172/6/3 168/6/3 171/6/3
f 173/2/3 169/2/3 158/2/3
f 174/1/3 170/1/3 169/1/3
f 174/2/3 169/2/3 173/2/3
f 175/5/3 171/5/3 170/5/3
f 175/1/3 170/1/3 174/1/3
f 176/3/3 172/3/3 171/3/3
f 176/5/3 171/5/3 175/5/3
f 177/3/3 172/3/3 176/3/3
f 178/7/3 164/7/3 163/7/3
f 179/7/3 164/7/3 178/7/3
f 180/7/3 177/7/3 176/7/3
f 181/7/3 177/7/3 180/7/3
f 187/2/3 183/2/3 182/2/3
f 188/2/3 183/2/3 187/2/3
f 189/6/3 185/6/3 184/6/3
f 190/7/3 186/7/3 185/7/3
f 190/6/3 185/6/3 189/6/3
f 191/7/3 186/7/3 190/7/3
f 195/6/3 193/6/3 192/6/3
f 196/7/3 194/7/3 193/7/3
f 196/6/3 193/6/3 195/6/3
f 197/7/3 194/7/3 196/7/3
f 200/2/3 199/2/3 198/2/3
f 201/2/3 199/2/3 200/2/3
f 202/4/3 201/4/3 200/4/3
f 203/4/3 201/4/3 202/4/3
f 204/4/4 205/4/4 207/4/4
f 205/8/4 206/8/4 208/8/4
f 207/4/4 205/4/4 208/4/4
f 208/8/4 206/8/4 209/8/4
f 207/2/4 208/2/4 213/2/4
f 213/2/4 208/2/4 214/2/4
f 210/6/4 211/6/4 215/6/4
f 211/7/4 212/7/4 216/7/4
f 215/6/4 211/6/4 216/6/4
f 216/7/4 212/7/4 217/7/4
f 218/6/4 219/6/4 221/6/4
f 219/7/4 220/7/4 222/7/4
f 221/6/4 219/6/4 222/6/4
f 222/7/4 220/7/4 223/7/4
f 224/2/4 225/2/4 226/2/4
f 226/2/4 225/2/4 227/2/4
f 226/4/4 227/4/4 228/4/4
f 228/4/4 227/4/4 229/4/4
f 230/2/4 231/2/4 234/2/4
f 231/1/4 232/1/4 235/1/4
f 234/2/4 231/2/4 235/2/4
f 232/6/4 233/6/4 236/6/4
f 235/1/4 232/1/4 236/1/4
f 236/6/4 233/6/4 237/6/4
f 238/7/4 239/7/4 240/7/4
f 240/7/4 239/7/4 241/7/4
f 241/7/4 239/7/4 242/7/4
f 238/7/4 240/7/4 244/7/4
f 242/7/4 243/7/4 245/7/4
f 241/7/4 242/7/4 245/7/4
f 245/7/4 243/7/4 246/7/4
f 246/7/4 243/7/4 247/7/4
f 238/7/4 244/7/4 248/7/4
f 244/7/4 245/7/4 248/7/4
f 245/7/4 246/7/4 248/7/4
f 248/7/4 246/7/4 249/7/4
f 250/7/4 251/7/4 252/7/4
f 252/7/4 251/7/4 253/7/4
f 258/6/5 255/6/5 254/6/5
f 259/6/5 255/6/5 258/6/5
f 260/6/5 257/6/5 256/6/5
f 261/6/5 257/6/5 260/6/5
f 264/2/5 263/2/5 262/2/5
f 265/2/5 263/2/5 264/2/5
f 266/2/5 263/2/5 265/2/5
f 267/2/5 263/2/5 266/2/5
f 269/2/5 266/2/5 265/2/5
f 270/2/5 266/2/5 269/2/5
f 272/2/5 269/2/5 268/2/5
f 272/2/5 271/2/5 270/2/5
f 272/2/5 270/2/5 269/2/5
f 273/2/5 271/2/5 272/2/5
f 276/8/5 275/8/5 274/8/5
f 277/8/5 275/8/5 276/8/5
f 282/4/5 277/4/5 276/4/5
f 283/2/5 278/2/5 277/2/5
f 283/4/5 277/4/5 282/4/5
f 284/2/5 278/2/5 283/2/5
f 285/2/5 280/2/5 279/2/5
f 286/4/5 281/4/5 280/4/5
f 286/2/5 280/2/5 285/2/5
f 287/4/5 281/4/5 286/4/5
f 292/8/5 289/8/5 288/8/5
f 293/8/5 289/8/5 292/8/5
f 294/1/5 291/1/5 290/1/5
f 295/1/5 291/1/5 294/1/5
f 300/7/5 297/7/5 296/7/5
f 301/7/5 299/7/5 298/7/5
f 302/7/5 300/7/5 296/7/5
f 303/7/5 299/7/5 301/7/5
f 304/7/5 302/7/5 296/7/5
f 304/7/5 303/7/5 302/7/5
f 305/7/5 299/7/5 303/7/5
f 305/7/5 303/7/5 304/7/5
f 309/7/5 307/7/5 306/7/5
f 310/7/5 307/7/5 309/7/5
f 312/7/5 309/7/5 308/7/5
f 312/7/5 311/7/5 310/7/5
f 312/7/5 310/7/5 309/7/5
f 313/7/5 311/7/5 312/7/5
f 314/7/5 311/7/5 313/7/5
f 315/7/5 311/7/5 314/7/5
f 316/7/5 311/7/5 315/7/5
f 317/7/5 311/7/5 316/7/5
f 320/7/5 319/7/5 318/7/5
f 321/7/5 319/7/5 320/7/5
f 322/2/6 323/2/6 327/2/6
f 327/2/6 323/2/6 328/2/6
f 324/2/6 325/2/6 329/2/6
f 325/4/6 326/4/6 330/4/6
f 329/2/6 325/2/6 330/2/6
f 330/4/6 326/4/6 331/4/6
f 332/8/6 333/8/6 334/8/6
f 334/8/6 333/8/6 335/8/6
f 336/7/6 337/7/6 338/7/6
f 338/7/6 337/7/6 339/7/6
f 340/7/6 341/7/6 343/7/6
f 343/7/6 341/7/6 344/7/6
f 342/7/6 343/7/6 346/7/6
f 344/7/6 345/7/6 346/7/6
f 343/7/6 344/7/6 346/7/6
f 346/7/6 345/7/6 347/7/6
f 348/7/6 349/7/6 350/7/6
f 350/7/6 349/7/6 351/7/6
f 352/7/6 353/7/6 354/7/6
f 354/7/6 353/7/6 355/7/6
f 352/7/6 354/7/6 356/7/6
f 356/7/6 354/7/6 357/7/6
f 355/7/6 353/7/6 358/7/6
f 358/7/6 353/7/6 359/7/6
f 360/7/6 361/7/6 362/7/6
f 362/7/6 361/7/6 363/7/6
