# MagicaVoxel @ Ephtracy

# group
o 

# material
mtllib pistola.mtl
usemtl palette

# normals
vn -1 0 0
vn 1 0 0
vn 0 0 1
vn 0 0 -1
vn 0 -1 0
vn 0 1 0

# texcoords
vt 0.537109 0.5
vt 0.849609 0.5
vt 0.986328 0.5
vt 0.994141 0.5

# verts
v -0.7 0.3 1
v -0.7 0.3 0.7
v -0.7 0.4 0.9
v -0.7 0.4 0.8
v -0.7 0.5 0.9
v -0.7 0.5 0.8
v -0.7 0.8 0.9
v -0.7 0.8 0.8
v -0.7 0.8 0.7
v -0.7 0.8 0.6
v -0.7 0.9 1.1
v -0.7 0.9 1
v -0.7 0.9 0.9
v -0.7 0.9 0.8
v -0.7 0.9 0.6
v -0.7 0.9 0.5
v -0.7 1 1.2
v -0.7 1 1.1
v -0.7 1 1
v -0.7 1 0.5
v -0.7 1 -1
v -0.7 1.1 1.3
v -0.7 1.1 1.2
v -0.7 1.2 1.3
v -0.7 1.2 1.2
v -0.7 1.2 0.4
v -0.7 1.2 -0.3
v -0.7 1.3 1.2
v -0.7 1.3 1.1
v -0.7 1.3 0.4
v -0.7 1.3 -0.3
v -0.7 1.4 1.1
v -0.7 1.4 0.4
v -0.7 1.4 -0.3
v -0.7 1.4 -1
v -0.6 0.2 1.1
v -0.6 0.2 0.6
v -0.6 0.3 1
v -0.6 0.3 0.7
v -0.6 0.4 0.9
v -0.6 0.4 0.8
v -0.6 0.5 0.9
v -0.6 0.5 0.8
v -0.6 0.5 0.6
v -0.6 0.5 0.5
v -0.6 0.8 0.9
v -0.6 0.8 0.8
v -0.6 0.8 0.7
v -0.6 0.8 0.6
v -0.6 0.9 1.1
v -0.6 0.9 1
v -0.6 0.9 0.9
v -0.6 0.9 0.8
v -0.6 0.9 0.6
v -0.6 0.9 0.5
v -0.6 0.9 -1
v -0.6 1 0.5
v -0.6 1 -1
v -0.6 1.1 -1
v -0.6 1.1 -1.1
v -0.6 1.4 1
v -0.6 1.4 0.4
v -0.6 1.4 -0.3
v -0.6 1.4 -1
v -0.6 1.4 -1.1
v -0.6 1.5 1
v -0.6 1.5 0.4
v -0.6 1.5 -0.3
v -0.6 1.5 -1
v -0.5 0.7 0.5
v -0.5 0.7 0.3
v -0.5 0.8 0.3
v -0.5 0.8 0.2
v -0.5 0.9 0.5
v -0.5 0.9 0.2
v -0.5 0.9 -1
v -0.5 0.9 -1.1
v -0.5 1.1 -1
v -0.5 1.1 -1.1
v -0.5 1.1 -1.2
v -0.5 1.3 0.4
v -0.5 1.3 -0.3
v -0.5 1.4 -1.1
v -0.5 1.4 -1.2
v -0.5 1.5 1
v -0.5 1.5 0.9
v -0.5 1.5 0.4
v -0.5 1.5 -0.3
v -0.5 1.5 -0.9
v -0.5 1.5 -1
v -0.5 1.6 1
v -0.5 1.6 0.9
v -0.5 1.7 -0.9
v -0.5 1.7 -1
v -0.4 0.5 0.5
v -0.4 0.5 -0.0999999
v -0.4 0.6 0.3
v -0.4 0.6 1.19209e-07
v -0.4 0.6 -0.0999999
v -0.4 0.6 -0.2
v -0.4 0.7 0.5
v -0.4 0.7 0.3
v -0.4 0.7 0.2
v -0.4 0.7 1.19209e-07
v -0.4 0.7 -0.0999999
v -0.4 0.8 0.2
v -0.4 0.8 0.1
v -0.4 0.8 1.19209e-07
v -0.4 0.9 0.2
v -0.4 0.9 0.1
v -0.4 0.9 -0.0999999
v -0.4 0.9 -0.2
v -0.4 1.6 1
v -0.4 1.6 0.9
v -0.4 1.7 1
v -0.4 1.7 0.9
v -0.3 1.2 -1
v -0.3 1.2 -1.2
v -0.3 1.3 -1
v -0.3 1.3 -1.2
v -0.3 1.6 -0.9
v -0.3 1.6 -1
v -0.3 1.7 -0.9
v -0.3 1.7 -1
v -0.4 1.2 -1
v -0.4 1.2 -1.2
v -0.4 1.3 -1
v -0.4 1.3 -1.2
v -0.4 1.6 -0.9
v -0.4 1.6 -1
v -0.4 1.7 -0.9
v -0.4 1.7 -1
v -0.3 0.5 0.5
v -0.3 0.5 -0.0999999
v -0.3 0.6 0.3
v -0.3 0.6 1.19209e-07
v -0.3 0.6 -0.0999999
v -0.3 0.6 -0.2
v -0.3 0.7 0.5
v -0.3 0.7 0.3
v -0.3 0.7 0.2
v -0.3 0.7 1.19209e-07
v -0.3 0.7 -0.0999999
v -0.3 0.8 0.2
v -0.3 0.8 0.1
v -0.3 0.8 1.19209e-07
v -0.3 0.9 0.2
v -0.3 0.9 0.1
v -0.3 0.9 -0.0999999
v -0.3 0.9 -0.2
v -0.3 1.6 1
v -0.3 1.6 0.9
v -0.3 1.7 1
v -0.3 1.7 0.9
v -0.2 0.7 0.5
v -0.2 0.7 0.3
v -0.2 0.8 0.3
v -0.2 0.8 0.2
v -0.2 0.9 0.5
v -0.2 0.9 0.2
v -0.2 0.9 -1
v -0.2 0.9 -1.1
v -0.2 1.1 -1
v -0.2 1.1 -1.1
v -0.2 1.1 -1.2
v -0.2 1.4 -1.1
v -0.2 1.4 -1.2
v -0.2 1.5 1
v -0.2 1.5 0.9
v -0.2 1.5 -0.9
v -0.2 1.5 -1
v -0.2 1.6 1
v -0.2 1.6 0.9
v -0.2 1.7 -0.9
v -0.2 1.7 -1
v -0.1 0.2 1.1
v -0.1 0.2 0.6
v -0.1 0.3 1
v -0.1 0.3 0.7
v -0.1 0.4 0.9
v -0.1 0.4 0.8
v -0.1 0.5 0.9
v -0.1 0.5 0.8
v -0.1 0.5 0.6
v -0.1 0.5 0.5
v -0.1 0.8 0.9
v -0.1 0.8 0.8
v -0.1 0.8 0.7
v -0.1 0.8 0.6
v -0.1 0.9 1.1
v -0.1 0.9 1
v -0.1 0.9 0.9
v -0.1 0.9 0.8
v -0.1 0.9 0.6
v -0.1 0.9 0.5
v -0.1 0.9 -1
v -0.1 1 0.5
v -0.1 1 -1
v -0.1 1.1 -1
v -0.1 1.1 -1.1
v -0.1 1.4 1
v -0.1 1.4 -1
v -0.1 1.4 -1.1
v -0.1 1.5 1
v -0.1 1.5 -1
v 0 0.3 1
v 0 0.3 0.7
v 0 0.4 0.9
v 0 0.4 0.8
v 0 0.5 0.9
v 0 0.5 0.8
v 0 0.8 0.9
v 0 0.8 0.8
v 0 0.8 0.7
v 0 0.8 0.6
v 0 0.9 1.1
v 0 0.9 1
v 0 0.9 0.9
v 0 0.9 0.8
v 0 0.9 0.6
v 0 0.9 0.5
v 0 1 1.2
v 0 1 1.1
v 0 1 1
v 0 1 0.5
v 0 1 -1
v 0 1.1 1.3
v 0 1.1 1.2
v 0 1.2 1.3
v 0 1.2 1.2
v 0 1.3 1.2
v 0 1.3 1.1
v 0 1.4 1.1
v 0 1.4 -1
v -0.7 1.1 1.3
v -0.7 1.2 1.3
v 0 1.1 1.3
v 0 1.2 1.3
v -0.7 1 1.2
v -0.7 1.1 1.2
v -0.7 1.2 1.2
v -0.7 1.3 1.2
v 0 1 1.2
v 0 1.1 1.2
v 0 1.2 1.2
v 0 1.3 1.2
v -0.7 0.9 1.1
v -0.7 1 1.1
v -0.7 1.3 1.1
v -0.7 1.4 1.1
v -0.6 0.2 1.1
v -0.6 0.9 1.1
v -0.1 0.2 1.1
v -0.1 0.9 1.1
v 0 0.9 1.1
v 0 1 1.1
v 0 1.3 1.1
v 0 1.4 1.1
v -0.7 0.3 1
v -0.7 0.9 1
v -0.6 0.3 1
v -0.6 0.9 1
v -0.6 1.4 1
v -0.6 1.5 1
v -0.5 1.5 1
v -0.5 1.6 1
v -0.4 1.6 1
v -0.4 1.7 1
v -0.3 1.6 1
v -0.3 1.7 1
v -0.2 1.5 1
v -0.2 1.6 1
v -0.1 0.3 1
v -0.1 0.9 1
v -0.1 1.4 1
v -0.1 1.5 1
v 0 0.3 1
v 0 0.9 1
v -0.7 0.4 0.8
v -0.7 0.5 0.8
v -0.7 0.8 0.8
v -0.7 0.9 0.8
v -0.6 0.4 0.8
v -0.6 0.5 0.8
v -0.6 0.8 0.8
v -0.6 0.9 0.8
v -0.1 0.4 0.8
v -0.1 0.5 0.8
v -0.1 0.8 0.8
v -0.1 0.9 0.8
v 0 0.4 0.8
v 0 0.5 0.8
v 0 0.8 0.8
v 0 0.9 0.8
v -0.4 0.7 0.2
v -0.4 0.8 0.2
v -0.3 0.7 0.2
v -0.3 0.8 0.2
v -0.4 0.6 1.19209e-07
v -0.4 0.7 1.19209e-07
v -0.3 0.6 1.19209e-07
v -0.3 0.7 1.19209e-07
v -0.4 0.7 -0.0999999
v -0.4 0.9 -0.0999999
v -0.3 0.7 -0.0999999
v -0.3 0.9 -0.0999999
v -0.7 1.3 -0.3
v -0.7 1.4 -0.3
v -0.6 1.4 -0.3
v -0.6 1.5 -0.3
v -0.5 1.3 -0.3
v -0.5 1.5 -0.3
v -0.5 1.5 -0.9
v -0.5 1.7 -0.9
v -0.4 1.6 -0.9
v -0.4 1.7 -0.9
v -0.3 1.6 -0.9
v -0.3 1.7 -0.9
v -0.2 1.5 -0.9
v -0.2 1.7 -0.9
v -0.7 0.4 0.9
v -0.7 0.5 0.9
v -0.7 0.8 0.9
v -0.7 0.9 0.9
v -0.6 0.4 0.9
v -0.6 0.5 0.9
v -0.6 0.8 0.9
v -0.6 0.9 0.9
v -0.5 1.5 0.9
v -0.5 1.6 0.9
v -0.4 1.6 0.9
v -0.4 1.7 0.9
v -0.3 1.6 0.9
v -0.3 1.7 0.9
v -0.2 1.5 0.9
v -0.2 1.6 0.9
v -0.1 0.4 0.9
v -0.1 0.5 0.9
v -0.1 0.8 0.9
v -0.1 0.9 0.9
v 0 0.4 0.9
v 0 0.5 0.9
v 0 0.8 0.9
v 0 0.9 0.9
v -0.7 0.3 0.7
v -0.7 0.8 0.7
v -0.6 0.3 0.7
v -0.6 0.8 0.7
v -0.1 0.3 0.7
v -0.1 0.8 0.7
v 0 0.3 0.7
v 0 0.8 0.7
v -0.7 0.8 0.6
v -0.7 0.9 0.6
v -0.6 0.2 0.6
v -0.6 0.5 0.6
v -0.6 0.8 0.6
v -0.6 0.9 0.6
v -0.1 0.2 0.6
v -0.1 0.5 0.6
v -0.1 0.8 0.6
v -0.1 0.9 0.6
v 0 0.8 0.6
v 0 0.9 0.6
v -0.7 0.9 0.5
v -0.7 1 0.5
v -0.6 0.5 0.5
v -0.6 0.9 0.5
v -0.6 1 0.5
v -0.5 0.7 0.5
v -0.5 0.9 0.5
v -0.4 0.5 0.5
v -0.4 0.7 0.5
v -0.3 0.5 0.5
v -0.3 0.7 0.5
v -0.2 0.7 0.5
v -0.2 0.9 0.5
v -0.1 0.5 0.5
v -0.1 0.9 0.5
v -0.1 1 0.5
v 0 0.9 0.5
v 0 1 0.5
v -0.7 1.3 0.4
v -0.7 1.4 0.4
v -0.6 1.4 0.4
v -0.6 1.5 0.4
v -0.5 1.3 0.4
v -0.5 1.5 0.4
v -0.5 0.7 0.3
v -0.5 0.8 0.3
v -0.4 0.6 0.3
v -0.4 0.7 0.3
v -0.3 0.6 0.3
v -0.3 0.7 0.3
v -0.2 0.7 0.3
v -0.2 0.8 0.3
v -0.5 0.8 0.2
v -0.5 0.9 0.2
v -0.4 0.8 0.2
v -0.4 0.9 0.2
v -0.3 0.8 0.2
v -0.3 0.9 0.2
v -0.2 0.8 0.2
v -0.2 0.9 0.2
v -0.4 0.8 0.1
v -0.4 0.9 0.1
v -0.3 0.8 0.1
v -0.3 0.9 0.1
v -0.4 0.7 1.19209e-07
v -0.4 0.8 1.19209e-07
v -0.3 0.7 1.19209e-07
v -0.3 0.8 1.19209e-07
v -0.4 0.5 -0.0999999
v -0.4 0.6 -0.0999999
v -0.3 0.5 -0.0999999
v -0.3 0.6 -0.0999999
v -0.4 0.6 -0.2
v -0.4 0.9 -0.2
v -0.3 0.6 -0.2
v -0.3 0.9 -0.2
v -0.7 1 -1
v -0.7 1.4 -1
v -0.6 0.9 -1
v -0.6 1 -1
v -0.6 1.1 -1
v -0.6 1.4 -1
v -0.6 1.5 -1
v -0.5 0.9 -1
v -0.5 1.1 -1
v -0.5 1.5 -1
v -0.5 1.7 -1
v -0.4 1.2 -1
v -0.4 1.3 -1
v -0.4 1.6 -1
v -0.4 1.7 -1
v -0.3 1.2 -1
v -0.3 1.3 -1
v -0.3 1.6 -1
v -0.3 1.7 -1
v -0.2 0.9 -1
v -0.2 1.1 -1
v -0.2 1.5 -1
v -0.2 1.7 -1
v -0.1 0.9 -1
v -0.1 1 -1
v -0.1 1.1 -1
v -0.1 1.4 -1
v -0.1 1.5 -1
v 0 1 -1
v 0 1.4 -1
v -0.6 1.1 -1.1
v -0.6 1.4 -1.1
v -0.5 0.9 -1.1
v -0.5 1.1 -1.1
v -0.5 1.4 -1.1
v -0.2 0.9 -1.1
v -0.2 1.1 -1.1
v -0.2 1.4 -1.1
v -0.1 1.1 -1.1
v -0.1 1.4 -1.1
v -0.5 1.1 -1.2
v -0.5 1.4 -1.2
v -0.4 1.2 -1.2
v -0.4 1.3 -1.2
v -0.3 1.2 -1.2
v -0.3 1.3 -1.2
v -0.2 1.1 -1.2
v -0.2 1.4 -1.2
v -0.6 0.2 1.1
v -0.1 0.2 1.1
v -0.6 0.2 0.6
v -0.1 0.2 0.6
v -0.7 0.3 1
v -0.6 0.3 1
v -0.1 0.3 1
v 0 0.3 1
v -0.7 0.3 0.7
v -0.6 0.3 0.7
v -0.1 0.3 0.7
v 0 0.3 0.7
v -0.7 0.5 0.9
v -0.6 0.5 0.9
v -0.1 0.5 0.9
v 0 0.5 0.9
v -0.7 0.5 0.8
v -0.6 0.5 0.8
v -0.1 0.5 0.8
v 0 0.5 0.8
v -0.6 0.5 0.6
v -0.1 0.5 0.6
v -0.6 0.5 0.5
v -0.4 0.5 0.5
v -0.3 0.5 0.5
v -0.1 0.5 0.5
v -0.4 0.5 -0.0999999
v -0.3 0.5 -0.0999999
v -0.4 0.6 -0.0999999
v -0.3 0.6 -0.0999999
v -0.4 0.6 -0.2
v -0.3 0.6 -0.2
v -0.5 0.7 0.5
v -0.4 0.7 0.5
v -0.3 0.7 0.5
v -0.2 0.7 0.5
v -0.5 0.7 0.3
v -0.4 0.7 0.3
v -0.3 0.7 0.3
v -0.2 0.7 0.3
v -0.4 0.7 0.2
v -0.3 0.7 0.2
v -0.4 0.7 1.19209e-07
v -0.3 0.7 1.19209e-07
v -0.7 0.8 0.7
v -0.6 0.8 0.7
v -0.1 0.8 0.7
v 0 0.8 0.7
v -0.7 0.8 0.6
v -0.6 0.8 0.6
v -0.1 0.8 0.6
v 0 0.8 0.6
v -0.5 0.8 0.3
v -0.2 0.8 0.3
v -0.5 0.8 0.2
v -0.4 0.8 0.2
v -0.3 0.8 0.2
v -0.2 0.8 0.2
v -0.7 0.9 1.1
v -0.6 0.9 1.1
v -0.1 0.9 1.1
v 0 0.9 1.1
v -0.7 0.9 1
v -0.6 0.9 1
v -0.1 0.9 1
v 0 0.9 1
v -0.7 0.9 0.9
v -0.6 0.9 0.9
v -0.1 0.9 0.9
v 0 0.9 0.9
v -0.7 0.9 0.8
v -0.6 0.9 0.8
v -0.1 0.9 0.8
v 0 0.9 0.8
v -0.7 0.9 0.6
v -0.6 0.9 0.6
v -0.1 0.9 0.6
v 0 0.9 0.6
v -0.7 0.9 0.5
v -0.6 0.9 0.5
v -0.5 0.9 0.5
v -0.2 0.9 0.5
v -0.1 0.9 0.5
v 0 0.9 0.5
v -0.5 0.9 0.2
v -0.4 0.9 0.2
v -0.3 0.9 0.2
v -0.2 0.9 0.2
v -0.4 0.9 0.1
v -0.3 0.9 0.1
v -0.4 0.9 -0.0999999
v -0.3 0.9 -0.0999999
v -0.4 0.9 -0.2
v -0.3 0.9 -0.2
v -0.6 0.9 -1
v -0.5 0.9 -1
v -0.2 0.9 -1
v -0.1 0.9 -1
v -0.5 0.9 -1.1
v -0.2 0.9 -1.1
v -0.7 1 1.2
v 0 1 1.2
v -0.7 1 1.1
v 0 1 1.1
v -0.7 1 0.5
v -0.6 1 0.5
v -0.1 1 0.5
v 0 1 0.5
v -0.7 1 -1
v -0.6 1 -1
v -0.1 1 -1
v 0 1 -1
v -0.7 1.1 1.3
v 0 1.1 1.3
v -0.7 1.1 1.2
v 0 1.1 1.2
v -0.6 1.1 -1
v -0.5 1.1 -1
v -0.2 1.1 -1
v -0.1 1.1 -1
v -0.6 1.1 -1.1
v -0.5 1.1 -1.1
v -0.2 1.1 -1.1
v -0.1 1.1 -1.1
v -0.5 1.1 -1.2
v -0.2 1.1 -1.2
v -0.4 1.3 -1
v -0.3 1.3 -1
v -0.4 1.3 -1.2
v -0.3 1.3 -1.2
v -0.7 0.4 0.9
v -0.6 0.4 0.9
v -0.1 0.4 0.9
v 0 0.4 0.9
v -0.7 0.4 0.8
v -0.6 0.4 0.8
v -0.1 0.4 0.8
v 0 0.4 0.8
v -0.4 0.6 0.3
v -0.3 0.6 0.3
v -0.4 0.6 1.19209e-07
v -0.3 0.6 1.19209e-07
v -0.4 0.7 1.19209e-07
v -0.3 0.7 1.19209e-07
v -0.4 0.7 -0.0999999
v -0.3 0.7 -0.0999999
v -0.7 0.8 0.9
v -0.6 0.8 0.9
v -0.1 0.8 0.9
v 0 0.8 0.9
v -0.7 0.8 0.8
v -0.6 0.8 0.8
v -0.1 0.8 0.8
v 0 0.8 0.8
v -0.4 0.8 0.1
v -0.3 0.8 0.1
v -0.4 0.8 1.19209e-07
v -0.3 0.8 1.19209e-07
v -0.7 1.2 1.3
v 0 1.2 1.3
v -0.7 1.2 1.2
v 0 1.2 1.2
v -0.4 1.2 -1
v -0.3 1.2 -1
v -0.4 1.2 -1.2
v -0.3 1.2 -1.2
v -0.7 1.3 1.2
v 0 1.3 1.2
v -0.7 1.3 1.1
v 0 1.3 1.1
v -0.7 1.3 0.4
v -0.5 1.3 0.4
v -0.7 1.3 -0.3
v -0.5 1.3 -0.3
v -0.7 1.4 1.1
v 0 1.4 1.1
v -0.6 1.4 1
v -0.1 1.4 1
v -0.7 1.4 0.4
v -0.6 1.4 0.4
v -0.7 1.4 -0.3
v -0.6 1.4 -0.3
v -0.7 1.4 -1
v -0.6 1.4 -1
v -0.1 1.4 -1
v 0 1.4 -1
v -0.6 1.4 -1.1
v -0.5 1.4 -1.1
v -0.2 1.4 -1.1
v -0.1 1.4 -1.1
v -0.5 1.4 -1.2
v -0.2 1.4 -1.2
v -0.6 1.5 1
v -0.5 1.5 1
v -0.2 1.5 1
v -0.1 1.5 1
v -0.5 1.5 0.9
v -0.2 1.5 0.9
v -0.6 1.5 0.4
v -0.5 1.5 0.4
v -0.4 1.5 0.4
v -0.6 1.5 -0.3
v -0.5 1.5 -0.3
v -0.4 1.5 -0.3
v -0.5 1.5 -0.9
v -0.2 1.5 -0.9
v -0.6 1.5 -1
v -0.5 1.5 -1
v -0.2 1.5 -1
v -0.1 1.5 -1
v -0.5 1.6 1
v -0.4 1.6 1
v -0.3 1.6 1
v -0.2 1.6 1
v -0.5 1.6 0.9
v -0.4 1.6 0.9
v -0.3 1.6 0.9
v -0.2 1.6 0.9
v -0.4 1.6 -0.9
v -0.3 1.6 -0.9
v -0.4 1.6 -1
v -0.3 1.6 -1
v -0.4 1.7 1
v -0.3 1.7 1
v -0.4 1.7 0.9
v -0.3 1.7 0.9
v -0.5 1.7 -0.9
v -0.4 1.7 -0.9
v -0.3 1.7 -0.9
v -0.2 1.7 -0.9
v -0.5 1.7 -1
v -0.4 1.7 -1
v -0.3 1.7 -1
v -0.2 1.7 -1

# faces
f 3/1/1 2/1/1 1/1/1
f 4/1/1 2/1/1 3/1/1
f 5/1/1 3/1/1 1/1/1
f 6/1/1 2/1/1 4/1/1
f 7/1/1 5/1/1 1/1/1
f 7/1/1 6/1/1 5/1/1
f 8/1/1 2/1/1 6/1/1
f 8/1/1 6/1/1 7/1/1
f 9/1/1 2/1/1 8/1/1
f 12/1/1 7/1/1 1/1/1
f 13/1/1 7/1/1 12/1/1
f 14/1/1 9/1/1 8/1/1
f 14/1/1 10/1/1 9/1/1
f 15/1/1 10/1/1 14/1/1
f 18/4/1 12/4/1 11/4/1
f 19/1/1 13/1/1 12/1/1
f 19/1/1 16/1/1 15/1/1
f 19/4/1 12/4/1 18/4/1
f 19/1/1 14/1/1 13/1/1
f 19/1/1 15/1/1 14/1/1
f 20/1/1 16/1/1 19/1/1
f 23/4/1 18/4/1 17/4/1
f 23/4/1 21/4/1 20/4/1
f 23/4/1 20/4/1 19/4/1
f 23/4/1 19/4/1 18/4/1
f 24/4/1 23/4/1 22/4/1
f 25/4/1 21/4/1 23/4/1
f 25/4/1 23/4/1 24/4/1
f 26/4/1 21/4/1 25/4/1
f 27/4/1 21/4/1 26/4/1
f 28/4/1 26/4/1 25/4/1
f 29/4/1 26/4/1 28/4/1
f 30/3/1 27/3/1 26/3/1
f 30/4/1 26/4/1 29/4/1
f 31/4/1 21/4/1 27/4/1
f 31/3/1 27/3/1 30/3/1
f 32/4/1 30/4/1 29/4/1
f 33/4/1 30/4/1 32/4/1
f 34/4/1 21/4/1 31/4/1
f 35/4/1 21/4/1 34/4/1
f 38/3/1 37/3/1 36/3/1
f 39/3/1 37/3/1 38/3/1
f 42/3/1 41/3/1 40/3/1
f 43/3/1 41/3/1 42/3/1
f 44/3/1 37/3/1 39/3/1
f 48/3/1 45/3/1 44/3/1
f 48/3/1 44/3/1 39/3/1
f 49/3/1 45/3/1 48/3/1
f 50/3/1 38/3/1 36/3/1
f 51/3/1 38/3/1 50/3/1
f 52/3/1 47/3/1 46/3/1
f 53/3/1 47/3/1 52/3/1
f 54/3/1 45/3/1 49/3/1
f 55/3/1 45/3/1 54/3/1
f 57/4/1 56/4/1 55/4/1
f 58/4/1 56/4/1 57/4/1
f 64/4/1 60/4/1 59/4/1
f 65/4/1 60/4/1 64/4/1
f 66/4/1 62/4/1 61/4/1
f 67/4/1 62/4/1 66/4/1
f 68/4/1 64/4/1 63/4/1
f 69/4/1 64/4/1 68/4/1
f 72/4/1 71/4/1 70/4/1
f 74/4/1 72/4/1 70/4/1
f 74/4/1 73/4/1 72/4/1
f 75/4/1 73/4/1 74/4/1
f 78/4/1 77/4/1 76/4/1
f 79/4/1 77/4/1 78/4/1
f 83/4/1 80/4/1 79/4/1
f 84/4/1 80/4/1 83/4/1
f 87/3/1 82/3/1 81/3/1
f 88/3/1 82/3/1 87/3/1
f 91/4/1 86/4/1 85/4/1
f 92/4/1 86/4/1 91/4/1
f 93/4/1 90/4/1 89/4/1
f 94/4/1 90/4/1 93/4/1
f 97/4/1 96/4/1 95/4/1
f 98/4/1 96/4/1 97/4/1
f 99/4/1 96/4/1 98/4/1
f 101/4/1 97/4/1 95/4/1
f 102/4/1 97/4/1 101/4/1
f 104/4/1 100/4/1 99/4/1
f 104/4/1 99/4/1 98/4/1
f 105/4/1 100/4/1 104/4/1
f 106/4/1 104/4/1 103/4/1
f 107/4/1 104/4/1 106/4/1
f 108/4/1 104/4/1 107/4/1
f 109/4/1 107/4/1 106/4/1
f 110/4/1 107/4/1 109/4/1
f 111/4/1 100/4/1 105/4/1
f 112/4/1 100/4/1 111/4/1
f 115/2/1 114/2/1 113/2/1
f 116/2/1 114/2/1 115/2/1
f 119/4/1 118/4/1 117/4/1
f 120/4/1 118/4/1 119/4/1
f 123/4/1 122/4/1 121/4/1
f 124/4/1 122/4/1 123/4/1
f 125/4/2 126/4/2 127/4/2
f 127/4/2 126/4/2 128/4/2
f 129/4/2 130/4/2 131/4/2
f 131/4/2 130/4/2 132/4/2
f 133/4/2 134/4/2 135/4/2
f 135/4/2 134/4/2 136/4/2
f 136/4/2 134/4/2 137/4/2
f 133/4/2 135/4/2 139/4/2
f 139/4/2 135/4/2 140/4/2
f 137/4/2 138/4/2 142/4/2
f 136/4/2 137/4/2 142/4/2
f 142/4/2 138/4/2 143/4/2
f 141/4/2 142/4/2 144/4/2
f 144/4/2 142/4/2 145/4/2
f 145/4/2 142/4/2 146/4/2
f 144/4/2 145/4/2 147/4/2
f 147/4/2 145/4/2 148/4/2
f 143/4/2 138/4/2 149/4/2
f 149/4/2 138/4/2 150/4/2
f 151/2/2 152/2/2 153/2/2
f 153/2/2 152/2/2 154/2/2
f 155/4/2 156/4/2 157/4/2
f 155/4/2 157/4/2 159/4/2
f 157/4/2 158/4/2 159/4/2
f 159/4/2 158/4/2 160/4/2
f 161/4/2 162/4/2 163/4/2
f 163/4/2 162/4/2 164/4/2
f 164/4/2 165/4/2 166/4/2
f 166/4/2 165/4/2 167/4/2
f 168/4/2 169/4/2 172/4/2
f 172/4/2 169/4/2 173/4/2
f 170/4/2 171/4/2 174/4/2
f 174/4/2 171/4/2 175/4/2
f 176/3/2 177/3/2 178/3/2
f 178/3/2 177/3/2 179/3/2
f 180/3/2 181/3/2 182/3/2
f 182/3/2 181/3/2 183/3/2
f 179/3/2 177/3/2 184/3/2
f 184/3/2 185/3/2 188/3/2
f 179/3/2 184/3/2 188/3/2
f 188/3/2 185/3/2 189/3/2
f 176/3/2 178/3/2 190/3/2
f 190/3/2 178/3/2 191/3/2
f 186/3/2 187/3/2 192/3/2
f 192/3/2 187/3/2 193/3/2
f 189/3/2 185/3/2 194/3/2
f 194/3/2 185/3/2 195/3/2
f 195/4/2 196/4/2 197/4/2
f 197/4/2 196/4/2 198/4/2
f 199/4/2 200/4/2 202/4/2
f 202/4/2 200/4/2 203/4/2
f 201/4/2 202/4/2 204/4/2
f 204/4/2 202/4/2 205/4/2
f 206/1/2 207/1/2 208/1/2
f 208/1/2 207/1/2 209/1/2
f 206/1/2 208/1/2 210/1/2
f 209/1/2 207/1/2 211/1/2
f 206/1/2 210/1/2 212/1/2
f 210/1/2 211/1/2 212/1/2
f 211/1/2 207/1/2 213/1/2
f 212/1/2 211/1/2 213/1/2
f 213/1/2 207/1/2 214/1/2
f 206/1/2 212/1/2 217/1/2
f 217/1/2 212/1/2 218/1/2
f 213/1/2 214/1/2 219/1/2
f 214/1/2 215/1/2 219/1/2
f 219/1/2 215/1/2 220/1/2
f 216/4/2 217/4/2 223/4/2
f 217/1/2 218/1/2 224/1/2
f 220/1/2 221/1/2 224/1/2
f 223/4/2 217/4/2 224/4/2
f 218/1/2 219/1/2 224/1/2
f 219/1/2 220/1/2 224/1/2
f 224/1/2 221/1/2 225/1/2
f 222/4/2 223/4/2 228/4/2
f 225/4/2 226/4/2 228/4/2
f 224/4/2 225/4/2 228/4/2
f 223/4/2 224/4/2 228/4/2
f 227/4/2 228/4/2 229/4/2
f 228/4/2 226/4/2 230/4/2
f 229/4/2 228/4/2 230/4/2
f 230/4/2 226/4/2 231/4/2
f 231/4/2 226/4/2 232/4/2
f 232/4/2 226/4/2 233/4/2
f 233/4/2 226/4/2 234/4/2
f 237/4/3 236/4/3 235/4/3
f 238/4/3 236/4/3 237/4/3
f 243/4/3 240/4/3 239/4/3
f 244/4/3 240/4/3 243/4/3
f 245/4/3 242/4/3 241/4/3
f 246/4/3 242/4/3 245/4/3
f 252/4/3 248/4/3 247/4/3
f 253/3/3 252/3/3 251/3/3
f 254/4/3 248/4/3 252/4/3
f 254/3/3 252/3/3 253/3/3
f 255/4/3 248/4/3 254/4/3
f 256/4/3 248/4/3 255/4/3
f 257/4/3 250/4/3 249/4/3
f 258/4/3 250/4/3 257/4/3
f 261/1/3 260/1/3 259/1/3
f 262/1/3 260/1/3 261/1/3
f 265/4/3 264/4/3 263/4/3
f 267/4/3 266/4/3 265/4/3
f 269/4/3 267/4/3 265/4/3
f 269/2/3 268/2/3 267/2/3
f 270/2/3 268/2/3 269/2/3
f 271/4/3 265/4/3 263/4/3
f 271/4/3 269/4/3 265/4/3
f 272/4/3 269/4/3 271/4/3
f 275/4/3 271/4/3 263/4/3
f 276/4/3 271/4/3 275/4/3
f 277/1/3 274/1/3 273/1/3
f 278/1/3 274/1/3 277/1/3
f 283/1/3 280/1/3 279/1/3
f 284/1/3 280/1/3 283/1/3
f 285/1/3 282/1/3 281/1/3
f 286/1/3 282/1/3 285/1/3
f 291/1/3 288/1/3 287/1/3
f 292/1/3 288/1/3 291/1/3
f 293/1/3 290/1/3 289/1/3
f 294/1/3 290/1/3 293/1/3
f 297/4/3 296/4/3 295/4/3
f 298/4/3 296/4/3 297/4/3
f 301/4/3 300/4/3 299/4/3
f 302/4/3 300/4/3 301/4/3
f 305/4/3 304/4/3 303/4/3
f 306/4/3 304/4/3 305/4/3
f 309/4/3 308/4/3 307/4/3
f 311/4/3 309/4/3 307/4/3
f 311/4/3 310/4/3 309/4/3
f 312/4/3 310/4/3 311/4/3
f 315/4/3 314/4/3 313/4/3
f 316/4/3 314/4/3 315/4/3
f 317/4/3 315/4/3 313/4/3
f 319/4/3 317/4/3 313/4/3
f 319/4/3 318/4/3 317/4/3
f 320/4/3 318/4/3 319/4/3
f 321/1/4 322/1/4 325/1/4
f 325/1/4 322/1/4 326/1/4
f 323/1/4 324/1/4 327/1/4
f 327/1/4 324/1/4 328/1/4
f 329/4/4 330/4/4 331/4/4
f 329/4/4 331/4/4 333/4/4
f 331/2/4 332/2/4 333/2/4
f 333/2/4 332/2/4 334/2/4
f 329/4/4 333/4/4 335/4/4
f 335/4/4 333/4/4 336/4/4
f 337/1/4 338/1/4 341/1/4
f 341/1/4 338/1/4 342/1/4
f 339/1/4 340/1/4 343/1/4
f 343/1/4 340/1/4 344/1/4
f 345/1/4 346/1/4 347/1/4
f 347/1/4 346/1/4 348/1/4
f 349/1/4 350/1/4 351/1/4
f 351/1/4 350/1/4 352/1/4
f 353/1/4 354/1/4 357/1/4
f 357/1/4 354/1/4 358/1/4
f 355/3/4 356/3/4 359/3/4
f 359/3/4 356/3/4 360/3/4
f 361/1/4 362/1/4 363/1/4
f 363/1/4 362/1/4 364/1/4
f 365/1/4 366/1/4 368/1/4
f 368/1/4 366/1/4 369/1/4
f 367/3/4 368/3/4 370/3/4
f 370/3/4 368/3/4 371/3/4
f 367/3/4 370/3/4 372/3/4
f 372/3/4 370/3/4 373/3/4
f 374/3/4 375/3/4 376/3/4
f 374/3/4 376/3/4 378/3/4
f 376/3/4 377/3/4 378/3/4
f 378/3/4 377/3/4 379/3/4
f 379/1/4 380/1/4 381/1/4
f 381/1/4 380/1/4 382/1/4
f 383/4/4 384/4/4 385/4/4
f 383/4/4 385/4/4 387/4/4
f 385/4/4 386/4/4 387/4/4
f 387/4/4 386/4/4 388/4/4
f 389/4/4 390/4/4 392/4/4
f 391/4/4 392/4/4 393/4/4
f 392/4/4 390/4/4 394/4/4
f 393/4/4 392/4/4 394/4/4
f 394/4/4 390/4/4 395/4/4
f 395/4/4 390/4/4 396/4/4
f 397/4/4 398/4/4 399/4/4
f 399/4/4 398/4/4 400/4/4
f 401/4/4 402/4/4 403/4/4
f 403/4/4 402/4/4 404/4/4
f 405/4/4 406/4/4 407/4/4
f 407/4/4 406/4/4 408/4/4
f 409/4/4 410/4/4 411/4/4
f 411/4/4 410/4/4 412/4/4
f 413/4/4 414/4/4 415/4/4
f 415/4/4 414/4/4 416/4/4
f 417/4/4 418/4/4 419/4/4
f 419/4/4 418/4/4 420/4/4
f 421/4/4 422/4/4 424/4/4
f 424/4/4 422/4/4 425/4/4
f 425/4/4 422/4/4 426/4/4
f 423/4/4 424/4/4 428/4/4
f 424/4/4 425/4/4 428/4/4
f 428/4/4 425/4/4 429/4/4
f 426/4/4 427/4/4 430/4/4
f 430/4/4 431/4/4 434/4/4
f 434/4/4 431/4/4 435/4/4
f 432/4/4 433/4/4 436/4/4
f 436/4/4 433/4/4 437/4/4
f 430/4/4 434/4/4 438/4/4
f 426/4/4 430/4/4 442/4/4
f 438/4/4 439/4/4 442/4/4
f 430/4/4 438/4/4 442/4/4
f 442/4/4 439/4/4 443/4/4
f 440/4/4 441/4/4 444/4/4
f 444/4/4 441/4/4 445/4/4
f 445/4/4 441/4/4 446/4/4
f 426/4/4 442/4/4 447/4/4
f 447/4/4 442/4/4 448/4/4
f 445/4/4 446/4/4 449/4/4
f 446/4/4 447/4/4 449/4/4
f 449/4/4 447/4/4 450/4/4
f 451/4/4 452/4/4 454/4/4
f 454/4/4 452/4/4 455/4/4
f 453/4/4 454/4/4 456/4/4
f 456/4/4 454/4/4 457/4/4
f 457/4/4 458/4/4 459/4/4
f 459/4/4 458/4/4 460/4/4
f 461/4/4 462/4/4 463/4/4
f 463/4/4 462/4/4 464/4/4
f 461/4/4 463/4/4 465/4/4
f 464/4/4 462/4/4 466/4/4
f 461/4/4 465/4/4 467/4/4
f 465/4/4 466/4/4 467/4/4
f 466/4/4 462/4/4 468/4/4
f 467/4/4 466/4/4 468/4/4
f 471/3/5 470/3/5 469/3/5
f 472/3/5 470/3/5 471/3/5
f 477/1/5 474/1/5 473/1/5
f 478/1/5 474/1/5 477/1/5
f 479/1/5 476/1/5 475/1/5
f 480/1/5 476/1/5 479/1/5
f 485/1/5 482/1/5 481/1/5
f 486/1/5 482/1/5 485/1/5
f 487/1/5 484/1/5 483/1/5
f 488/1/5 484/1/5 487/1/5
f 491/3/5 490/3/5 489/3/5
f 492/3/5 490/3/5 491/3/5
f 493/3/5 490/3/5 492/3/5
f 494/3/5 490/3/5 493/3/5
f 495/4/5 493/4/5 492/4/5
f 496/4/5 493/4/5 495/4/5
f 499/4/5 498/4/5 497/4/5
f 500/4/5 498/4/5 499/4/5
f 505/4/5 502/4/5 501/4/5
f 506/4/5 502/4/5 505/4/5
f 507/4/5 504/4/5 503/4/5
f 508/4/5 504/4/5 507/4/5
f 511/4/5 510/4/5 509/4/5
f 512/4/5 510/4/5 511/4/5
f 517/1/5 514/1/5 513/1/5
f 518/1/5 514/1/5 517/1/5
f 519/1/5 516/1/5 515/1/5
f 520/1/5 516/1/5 519/1/5
f 523/4/5 522/4/5 521/4/5
f 524/4/5 522/4/5 523/4/5
f 525/4/5 522/4/5 524/4/5
f 526/4/5 522/4/5 525/4/5
f 531/4/5 528/4/5 527/4/5
f 532/4/5 528/4/5 531/4/5
f 533/4/5 530/4/5 529/4/5
f 534/4/5 530/4/5 533/4/5
f 539/1/5 536/1/5 535/1/5
f 540/1/5 536/1/5 539/1/5
f 541/1/5 538/1/5 537/1/5
f 542/1/5 538/1/5 541/1/5
f 547/1/5 544/1/5 543/1/5
f 548/1/5 544/1/5 547/1/5
f 551/1/5 546/1/5 545/1/5
f 552/1/5 546/1/5 551/1/5
f 553/4/5 549/4/5 548/4/5
f 556/4/5 551/4/5 550/4/5
f 557/4/5 554/4/5 553/4/5
f 558/4/5 556/4/5 555/4/5
f 559/4/5 557/4/5 553/4/5
f 559/4/5 558/4/5 557/4/5
f 560/4/5 556/4/5 558/4/5
f 560/4/5 558/4/5 559/4/5
f 561/4/5 559/4/5 553/4/5
f 562/4/5 556/4/5 560/4/5
f 563/4/5 561/4/5 553/4/5
f 563/4/5 562/4/5 561/4/5
f 563/4/5 553/4/5 548/4/5
f 564/4/5 562/4/5 563/4/5
f 565/4/5 556/4/5 562/4/5
f 565/4/5 562/4/5 564/4/5
f 565/4/5 551/4/5 556/4/5
f 566/4/5 551/4/5 565/4/5
f 567/4/5 565/4/5 564/4/5
f 568/4/5 565/4/5 567/4/5
f 571/4/5 570/4/5 569/4/5
f 572/4/5 570/4/5 571/4/5
f 577/4/5 574/4/5 573/4/5
f 578/4/5 574/4/5 577/4/5
f 579/4/5 576/4/5 575/4/5
f 580/4/5 576/4/5 579/4/5
f 583/4/5 582/4/5 581/4/5
f 584/4/5 582/4/5 583/4/5
f 589/4/5 586/4/5 585/4/5
f 590/4/5 586/4/5 589/4/5
f 591/4/5 588/4/5 587/4/5
f 592/4/5 588/4/5 591/4/5
f 593/4/5 591/4/5 590/4/5
f 594/4/5 591/4/5 593/4/5
f 597/4/5 596/4/5 595/4/5
f 598/4/5 596/4/5 597/4/5
f 599/1/6 600/1/6 603/1/6
f 603/1/6 600/1/6 604/1/6
f 601/1/6 602/1/6 605/1/6
f 605/1/6 602/1/6 606/1/6
f 607/4/6 608/4/6 609/4/6
f 609/4/6 608/4/6 610/4/6
f 611/4/6 612/4/6 613/4/6
f 613/4/6 612/4/6 614/4/6
f 615/1/6 616/1/6 619/1/6
f 619/1/6 616/1/6 620/1/6
f 617/1/6 618/1/6 621/1/6
f 621/1/6 618/1/6 622/1/6
f 623/4/6 624/4/6 625/4/6
f 625/4/6 624/4/6 626/4/6
f 627/4/6 628/4/6 629/4/6
f 629/4/6 628/4/6 630/4/6
f 631/4/6 632/4/6 633/4/6
f 633/4/6 632/4/6 634/4/6
f 635/4/6 636/4/6 637/4/6
f 637/4/6 636/4/6 638/4/6
f 639/3/6 640/3/6 641/3/6
f 641/3/6 640/3/6 642/3/6
f 643/4/6 644/4/6 645/4/6
f 645/4/6 644/4/6 646/4/6
f 643/4/6 645/4/6 647/4/6
f 647/4/6 645/4/6 648/4/6
f 649/4/6 650/4/6 651/4/6
f 651/4/6 650/4/6 652/4/6
f 646/4/6 644/4/6 653/4/6
f 653/4/6 644/4/6 654/4/6
f 652/4/6 653/4/6 655/4/6
f 655/4/6 653/4/6 656/4/6
f 656/4/6 653/4/6 657/4/6
f 657/4/6 653/4/6 658/4/6
f 656/4/6 657/4/6 659/4/6
f 659/4/6 657/4/6 660/4/6
f 661/4/6 662/4/6 665/4/6
f 663/4/6 664/4/6 666/4/6
f 661/4/6 665/4/6 667/4/6
f 665/4/6 666/4/6 667/4/6
f 667/4/6 666/4/6 668/4/6
f 668/4/6 666/4/6 669/4/6
f 668/3/6 669/3/6 671/3/6
f 669/4/6 666/4/6 672/4/6
f 671/3/6 669/3/6 672/3/6
f 670/4/6 671/4/6 673/4/6
f 671/4/6 672/4/6 673/4/6
f 666/4/6 664/4/6 674/4/6
f 673/4/6 672/4/6 674/4/6
f 672/4/6 666/4/6 674/4/6
f 670/4/6 673/4/6 675/4/6
f 675/4/6 673/4/6 676/4/6
f 674/4/6 664/4/6 677/4/6
f 677/4/6 664/4/6 678/4/6
f 679/4/6 680/4/6 683/4/6
f 683/4/6 680/4/6 684/4/6
f 681/4/6 682/4/6 685/4/6
f 685/4/6 682/4/6 686/4/6
f 687/4/6 688/4/6 689/4/6
f 689/4/6 688/4/6 690/4/6
f 691/2/6 692/2/6 693/2/6
f 693/2/6 692/2/6 694/2/6
f 695/4/6 696/4/6 699/4/6
f 699/4/6 696/4/6 700/4/6
f 697/4/6 698/4/6 701/4/6
f 701/4/6 698/4/6 702/4/6
