# MagicaVoxel @ Ephtracy

# group
o 

# material
mtllib Player.mtl
usemtl palette

# normals
vn -1 0 0
vn 1 0 0
vn 0 0 1
vn 0 0 -1
vn 0 -1 0
vn 0 1 0

# texcoords
vt 0.841797 0.5
vt 0.869141 0.5
vt 0.970703 0.5
vt 0.974609 0.5
vt 0.978516 0.5
vt 0.982422 0.5
vt 0.994141 0.5

# verts
v -0.6 0.6 0.1
v -0.6 0.6 0
v -0.6 0.7 0.1
v -0.6 0.7 0
v -0.4 0.9 0.1
v -0.4 0.9 0
v -0.4 0.9 -0.1
v -0.4 1 0.1
v -0.4 1 0
v -0.4 1.1 0.2
v -0.4 1.1 0
v -0.4 1.2 0.2
v -0.4 1.2 -0.1
v -0.3 0.8 0.1
v -0.3 0.8 -0.1
v -0.3 0.9 0.2
v -0.3 0.9 0.1
v -0.3 0.9 0
v -0.3 0.9 -0.1
v -0.3 0.9 -0.2
v -0.3 1 0.3
v -0.3 1 0.2
v -0.3 1 0.1
v -0.3 1 0
v -0.3 1.1 0.2
v -0.3 1.1 0
v -0.3 1.2 0.3
v -0.3 1.2 0.2
v -0.3 1.2 -0.1
v -0.3 1.2 -0.2
v -0.3 1.3 0.2
v -0.3 1.3 -0.1
v -0.2 0 0.1
v -0.2 0 0
v -0.2 0.1 0.1
v -0.2 0.1 0
v -0.2 0.3 0.2
v -0.2 0.3 0.1
v -0.2 0.3 0
v -0.2 0.3 -0.1
v -0.2 0.4 0.2
v -0.2 0.4 -0.1
v -0.2 0.6 0.1
v -0.2 0.6 0
v -0.2 0.7 0.2
v -0.2 0.7 0.1
v -0.2 0.7 0
v -0.2 0.7 -0.1
v -0.2 0.8 0.2
v -0.2 0.8 0.1
v -0.2 0.8 -0.1
v -0.2 0.8 -0.2
v -0.2 0.9 0.2
v -0.2 0.9 0.1
v -0.2 0.9 -0.1
v -0.2 0.9 -0.2
v -0.2 1.1 0.4
v -0.2 1.1 0.3
v -0.2 1.2 0.4
v -0.2 1.2 0.3
v -0.2 1.2 0.2
v -0.2 1.3 0.3
v -0.2 1.3 0.2
v -0.2 1.3 0
v -0.2 1.4 0.2
v -0.2 1.4 0
v -5.96046e-08 1 0.3
v -5.96046e-08 1 0.2
v -5.96046e-08 1.1 0.3
v -5.96046e-08 1.1 0.2
v 0.1 0 0.1
v 0.1 0 0
v 0.1 0.1 0.1
v 0.1 0.1 0
v 0.1 0.3 0.1
v 0.1 0.3 0
v 0.2 1 0.3
v 0.2 1 0.2
v 0.2 1.1 0.3
v 0.2 1.1 0.2
v -0.2 1 0.3
v -0.2 1 0.2
v -0.2 1.1 0.3
v -0.2 1.1 0.2
v -0.1 0 0.1
v -0.1 0 0
v -0.1 0.1 0.1
v -0.1 0.1 0
v -0.1 0.3 0.1
v -0.1 0.3 0
v 0.1 1 0.3
v 0.1 1 0.2
v 0.1 1.1 0.3
v 0.1 1.1 0.2
v 0.2 0 0.1
v 0.2 0 0
v 0.2 0.1 0.1
v 0.2 0.1 0
v 0.2 0.3 0.2
v 0.2 0.3 0.1
v 0.2 0.3 0
v 0.2 0.3 -0.1
v 0.2 0.4 0.2
v 0.2 0.4 -0.1
v 0.2 0.6 0.1
v 0.2 0.6 0
v 0.2 0.7 0.2
v 0.2 0.7 0.1
v 0.2 0.7 0
v 0.2 0.7 -0.1
v 0.2 0.8 0.2
v 0.2 0.8 0.1
v 0.2 0.8 -0.1
v 0.2 0.8 -0.2
v 0.2 0.9 0.2
v 0.2 0.9 0.1
v 0.2 0.9 -0.1
v 0.2 0.9 -0.2
v 0.2 1.1 0.4
v 0.2 1.1 0.3
v 0.2 1.2 0.4
v 0.2 1.2 0.3
v 0.2 1.2 0.2
v 0.2 1.3 0.3
v 0.2 1.3 0.2
v 0.2 1.3 0
v 0.2 1.4 0.2
v 0.2 1.4 0
v 0.3 0.8 0.1
v 0.3 0.8 -0.1
v 0.3 0.9 0.2
v 0.3 0.9 0.1
v 0.3 0.9 0
v 0.3 0.9 -0.1
v 0.3 0.9 -0.2
v 0.3 1 0.3
v 0.3 1 0.2
v 0.3 1 0.1
v 0.3 1 0
v 0.3 1.1 0.1
v 0.3 1.1 0
v 0.3 1.2 0.3
v 0.3 1.2 0.2
v 0.3 1.2 0.1
v 0.3 1.2 -0.1
v 0.3 1.2 -0.2
v 0.3 1.3 0.2
v 0.3 1.3 -0.1
v 0.4 0.9 0.1
v 0.4 0.9 0
v 0.4 0.9 -0.1
v 0.4 1 0.1
v 0.4 1 0
v 0.4 1.1 0.1
v 0.4 1.1 0
v 0.4 1.2 0.1
v 0.4 1.2 -0.1
v 0.6 0.6 0.1
v 0.6 0.6 0
v 0.6 0.7 0.1
v 0.6 0.7 0
v -0.2 1.1 0.4
v -0.2 1.2 0.4
v 0.2 1.1 0.4
v 0.2 1.2 0.4
v -0.3 1 0.3
v -0.3 1.2 0.3
v -0.2 1 0.3
v -0.2 1.1 0.3
v -0.2 1.2 0.3
v -0.2 1.3 0.3
v -5.96046e-08 1 0.3
v -5.96046e-08 1.1 0.3
v 0.1 1 0.3
v 0.1 1.1 0.3
v 0.2 1 0.3
v 0.2 1.1 0.3
v 0.2 1.2 0.3
v 0.2 1.3 0.3
v 0.3 1 0.3
v 0.3 1.2 0.3
v -0.4 1.1 0.2
v -0.4 1.2 0.2
v -0.3 0.9 0.2
v -0.3 1 0.2
v -0.3 1.1 0.2
v -0.3 1.2 0.2
v -0.3 1.3 0.2
v -0.2 0.3 0.2
v -0.2 0.4 0.2
v -0.2 0.7 0.2
v -0.2 0.8 0.2
v -0.2 0.9 0.2
v -0.2 1 0.2
v -0.2 1.1 0.2
v -0.2 1.2 0.2
v -0.2 1.3 0.2
v -0.2 1.4 0.2
v -0.1 0.9 0.2
v -0.1 1 0.2
v -5.96046e-08 1 0.2
v -5.96046e-08 1.1 0.2
v 0.1 0.9 0.2
v 0.1 1 0.2
v 0.1 1.1 0.2
v 0.2 0.3 0.2
v 0.2 0.4 0.2
v 0.2 0.7 0.2
v 0.2 0.8 0.2
v 0.2 0.9 0.2
v 0.2 1 0.2
v 0.2 1.1 0.2
v 0.2 1.2 0.2
v 0.2 1.3 0.2
v 0.2 1.4 0.2
v 0.3 0.9 0.2
v 0.3 1 0.2
v 0.3 1.2 0.2
v 0.3 1.3 0.2
v -0.6 0.6 0.1
v -0.6 0.7 0.1
v -0.5 0.6 0.1
v -0.5 0.7 0.1
v -0.4 0.9 0.1
v -0.4 1 0.1
v -0.3 0.8 0.1
v -0.3 0.9 0.1
v -0.3 1 0.1
v -0.2 0 0.1
v -0.2 0.1 0.1
v -0.2 0.3 0.1
v -0.2 0.6 0.1
v -0.2 0.7 0.1
v -0.2 0.8 0.1
v -0.2 0.9 0.1
v -0.1 0 0.1
v -0.1 0.1 0.1
v -0.1 0.3 0.1
v 0.1 0 0.1
v 0.1 0.1 0.1
v 0.1 0.3 0.1
v 0.2 0 0.1
v 0.2 0.1 0.1
v 0.2 0.3 0.1
v 0.2 0.6 0.1
v 0.2 0.7 0.1
v 0.2 0.8 0.1
v 0.2 0.9 0.1
v 0.3 0.8 0.1
v 0.3 0.9 0.1
v 0.3 1 0.1
v 0.3 1.1 0.1
v 0.3 1.2 0.1
v 0.4 0.9 0.1
v 0.4 1 0.1
v 0.4 1.1 0.1
v 0.4 1.2 0.1
v 0.5 0.6 0.1
v 0.5 0.7 0.1
v 0.6 0.6 0.1
v 0.6 0.7 0.1
v -0.4 1 0
v -0.4 1.1 0
v -0.3 1 0
v -0.3 1.1 0
v 0.3 1 0
v 0.3 1.1 0
v 0.4 1 0
v 0.4 1.1 0
v -0.6 0.6 0
v -0.6 0.7 0
v -0.5 0.6 0
v -0.5 0.7 0
v -0.2 0 0
v -0.2 0.1 0
v -0.2 0.3 0
v -0.2 0.6 0
v -0.2 0.7 0
v -0.2 1.3 0
v -0.2 1.4 0
v -0.1 0 0
v -0.1 0.1 0
v -0.1 0.3 0
v 0.1 0 0
v 0.1 0.1 0
v 0.1 0.3 0
v 0.2 0 0
v 0.2 0.1 0
v 0.2 0.3 0
v 0.2 0.6 0
v 0.2 0.7 0
v 0.2 1.3 0
v 0.2 1.4 0
v 0.5 0.6 0
v 0.5 0.7 0
v 0.6 0.6 0
v 0.6 0.7 0
v -0.4 0.9 -0.1
v -0.4 1.2 -0.1
v -0.3 0.8 -0.1
v -0.3 0.9 -0.1
v -0.3 1.2 -0.1
v -0.3 1.3 -0.1
v -0.2 0.3 -0.1
v -0.2 0.4 -0.1
v -0.2 0.7 -0.1
v -0.2 0.8 -0.1
v -0.2 0.9 -0.1
v 0.2 0.3 -0.1
v 0.2 0.4 -0.1
v 0.2 0.7 -0.1
v 0.2 0.8 -0.1
v 0.2 0.9 -0.1
v 0.3 0.8 -0.1
v 0.3 0.9 -0.1
v 0.3 1.2 -0.1
v 0.3 1.3 -0.1
v 0.4 0.9 -0.1
v 0.4 1.2 -0.1
v -0.3 0.9 -0.2
v -0.3 1.2 -0.2
v -0.2 0.8 -0.2
v -0.2 0.9 -0.2
v 0.2 0.8 -0.2
v 0.2 0.9 -0.2
v 0.3 0.9 -0.2
v 0.3 1.2 -0.2
v -0.2 0 0.1
v -0.1 0 0.1
v 0.1 0 0.1
v 0.2 0 0.1
v -0.2 0 0
v -0.1 0 0
v 0.1 0 0
v 0.2 0 0
v -0.2 0.3 0.2
v 0.2 0.3 0.2
v -0.2 0.3 0.1
v -0.1 0.3 0.1
v 0.1 0.3 0.1
v 0.2 0.3 0.1
v -0.2 0.3 0
v -0.1 0.3 0
v 0.1 0.3 0
v 0.2 0.3 0
v -0.2 0.3 -0.1
v 0.2 0.3 -0.1
v -0.6 0.6 0.1
v -0.5 0.6 0.1
v -0.2 0.6 0.1
v 0.2 0.6 0.1
v 0.5 0.6 0.1
v 0.6 0.6 0.1
v -0.6 0.6 0
v -0.5 0.6 0
v -0.2 0.6 0
v 0.2 0.6 0
v 0.5 0.6 0
v 0.6 0.6 0
v -0.3 0.8 0.1
v -0.2 0.8 0.1
v 0.2 0.8 0.1
v 0.3 0.8 0.1
v -0.3 0.8 -0.1
v -0.2 0.8 -0.1
v 0.2 0.8 -0.1
v 0.3 0.8 -0.1
v -0.2 0.8 -0.2
v 0.2 0.8 -0.2
v -0.3 0.9 0.2
v -0.2 0.9 0.2
v 0.2 0.9 0.2
v 0.3 0.9 0.2
v -0.4 0.9 0.1
v -0.3 0.9 0.1
v -0.2 0.9 0.1
v 0.2 0.9 0.1
v 0.3 0.9 0.1
v 0.4 0.9 0.1
v -0.4 0.9 0
v -0.3 0.9 0
v 0.3 0.9 0
v 0.4 0.9 0
v -0.4 0.9 -0.1
v -0.3 0.9 -0.1
v -0.2 0.9 -0.1
v 0.2 0.9 -0.1
v 0.3 0.9 -0.1
v 0.4 0.9 -0.1
v -0.3 0.9 -0.2
v -0.2 0.9 -0.2
v 0.2 0.9 -0.2
v 0.3 0.9 -0.2
v -0.3 1 0.3
v -0.2 1 0.3
v -5.96046e-08 1 0.3
v 0.1 1 0.3
v 0.2 1 0.3
v 0.3 1 0.3
v -0.3 1 0.2
v -0.2 1 0.2
v -5.96046e-08 1 0.2
v 0.1 1 0.2
v 0.2 1 0.2
v 0.3 1 0.2
v -0.2 1.1 0.4
v 0.2 1.1 0.4
v -0.2 1.1 0.3
v -5.96046e-08 1.1 0.3
v 0.1 1.1 0.3
v 0.2 1.1 0.3
v -0.4 1.1 0.2
v -0.3 1.1 0.2
v -0.2 1.1 0.2
v -5.96046e-08 1.1 0.2
v 0.1 1.1 0.2
v 0.2 1.1 0.2
v 0.3 1.1 0.1
v 0.4 1.1 0.1
v -0.4 1.1 0
v -0.3 1.1 0
v 0.3 1.1 0
v 0.4 1.1 0
v -0.6 0.7 0.1
v -0.5 0.7 0.1
v -0.2 0.7 0.1
v 0.2 0.7 0.1
v 0.5 0.7 0.1
v 0.6 0.7 0.1
v -0.6 0.7 0
v -0.5 0.7 0
v -0.2 0.7 0
v 0.2 0.7 0
v 0.5 0.7 0
v 0.6 0.7 0
v -0.4 1 0.1
v -0.3 1 0.1
v 0.3 1 0.1
v 0.4 1 0.1
v -0.4 1 0
v -0.3 1 0
v 0.3 1 0
v 0.4 1 0
v -0.2 1.2 0.4
v 0.2 1.2 0.4
v -0.3 1.2 0.3
v -0.2 1.2 0.3
v 0.2 1.2 0.3
v 0.3 1.2 0.3
v -0.4 1.2 0.2
v -0.3 1.2 0.2
v -0.2 1.2 0.2
v 0.2 1.2 0.2
v 0.3 1.2 0.2
v 0.3 1.2 0.1
v 0.4 1.2 0.1
v -0.4 1.2 -0.1
v -0.3 1.2 -0.1
v 0.3 1.2 -0.1
v 0.4 1.2 -0.1
v -0.3 1.2 -0.2
v 0.3 1.2 -0.2
v -0.2 1.3 0.3
v 0.2 1.3 0.3
v -0.3 1.3 0.2
v -0.2 1.3 0.2
v 0.2 1.3 0.2
v 0.3 1.3 0.2
v -0.2 1.3 0
v 0.2 1.3 0
v -0.3 1.3 -0.1
v 0.3 1.3 -0.1
v -0.2 1.4 0.2
v 0.2 1.4 0.2
v -0.2 1.4 0
v 0.2 1.4 0

# faces
f 3/3/1 2/3/1 1/3/1
f 4/3/1 2/3/1 3/3/1
f 8/3/1 6/3/1 5/3/1
f 9/2/1 7/2/1 6/2/1
f 9/3/1 6/3/1 8/3/1
f 11/2/1 7/2/1 9/2/1
f 12/2/1 11/2/1 10/2/1
f 13/2/1 7/2/1 11/2/1
f 13/2/1 11/2/1 12/2/1
f 17/2/1 15/2/1 14/2/1
f 18/2/1 15/2/1 17/2/1
f 19/2/1 15/2/1 18/2/1
f 22/2/1 17/2/1 16/2/1
f 23/2/1 17/2/1 22/2/1
f 25/2/1 22/2/1 21/2/1
f 25/2/1 24/2/1 23/2/1
f 25/2/1 23/2/1 22/2/1
f 26/2/1 24/2/1 25/2/1
f 27/2/1 25/2/1 21/2/1
f 28/2/1 25/2/1 27/2/1
f 29/2/1 20/2/1 19/2/1
f 30/2/1 20/2/1 29/2/1
f 31/2/1 29/2/1 28/2/1
f 32/2/1 29/2/1 31/2/1
f 35/4/1 34/4/1 33/4/1
f 36/4/1 34/4/1 35/4/1
f 38/5/1 36/5/1 35/5/1
f 39/5/1 36/5/1 38/5/1
f 41/5/1 39/5/1 38/5/1
f 41/5/1 40/5/1 39/5/1
f 41/5/1 38/5/1 37/5/1
f 42/5/1 40/5/1 41/5/1
f 43/6/1 42/6/1 41/6/1
f 44/6/1 42/6/1 43/6/1
f 45/6/1 43/6/1 41/6/1
f 46/6/1 43/6/1 45/6/1
f 47/6/1 42/6/1 44/6/1
f 48/6/1 42/6/1 47/6/1
f 49/1/1 46/1/1 45/1/1
f 49/1/1 47/1/1 46/1/1
f 49/1/1 48/1/1 47/1/1
f 50/1/1 48/1/1 49/1/1
f 51/1/1 48/1/1 50/1/1
f 53/3/1 50/3/1 49/3/1
f 54/3/1 50/3/1 53/3/1
f 55/2/1 52/2/1 51/2/1
f 56/2/1 52/2/1 55/2/1
f 59/2/1 58/2/1 57/2/1
f 60/2/1 58/2/1 59/2/1
f 62/2/1 61/2/1 60/2/1
f 63/2/1 61/2/1 62/2/1
f 65/2/1 64/2/1 63/2/1
f 66/2/1 64/2/1 65/2/1
f 69/2/1 68/2/1 67/2/1
f 70/2/1 68/2/1 69/2/1
f 73/4/1 72/4/1 71/4/1
f 74/4/1 72/4/1 73/4/1
f 75/5/1 74/5/1 73/5/1
f 76/5/1 74/5/1 75/5/1
f 79/2/1 78/2/1 77/2/1
f 80/2/1 78/2/1 79/2/1
f 81/2/2 82/2/2 83/2/2
f 83/2/2 82/2/2 84/2/2
f 85/4/2 86/4/2 87/4/2
f 87/4/2 86/4/2 88/4/2
f 87/5/2 88/5/2 89/5/2
f 89/5/2 88/5/2 90/5/2
f 91/2/2 92/2/2 93/2/2
f 93/2/2 92/2/2 94/2/2
f 95/4/2 96/4/2 97/4/2
f 97/4/2 96/4/2 98/4/2
f 97/5/2 98/5/2 100/5/2
f 100/5/2 98/5/2 101/5/2
f 100/5/2 101/5/2 103/5/2
f 101/5/2 102/5/2 103/5/2
f 99/5/2 100/5/2 103/5/2
f 103/5/2 102/5/2 104/5/2
f 103/6/2 104/6/2 105/6/2
f 105/6/2 104/6/2 106/6/2
f 103/6/2 105/6/2 107/6/2
f 107/6/2 105/6/2 108/6/2
f 106/6/2 104/6/2 109/6/2
f 109/6/2 104/6/2 110/6/2
f 107/1/2 108/1/2 111/1/2
f 108/1/2 109/1/2 111/1/2
f 109/1/2 110/1/2 111/1/2
f 111/1/2 110/1/2 112/1/2
f 112/1/2 110/1/2 113/1/2
f 111/3/2 112/3/2 115/3/2
f 115/3/2 112/3/2 116/3/2
f 113/2/2 114/2/2 117/2/2
f 117/2/2 114/2/2 118/2/2
f 119/2/2 120/2/2 121/2/2
f 121/2/2 120/2/2 122/2/2
f 122/2/2 123/2/2 124/2/2
f 124/2/2 123/2/2 125/2/2
f 125/2/2 126/2/2 127/2/2
f 127/2/2 126/2/2 128/2/2
f 129/2/2 130/2/2 132/2/2
f 132/2/2 130/2/2 133/2/2
f 133/2/2 130/2/2 134/2/2
f 131/2/2 132/2/2 137/2/2
f 137/2/2 132/2/2 138/2/2
f 136/2/2 137/2/2 140/2/2
f 138/2/2 139/2/2 140/2/2
f 137/2/2 138/2/2 140/2/2
f 140/2/2 139/2/2 141/2/2
f 136/2/2 140/2/2 142/2/2
f 142/2/2 140/2/2 143/2/2
f 143/2/2 140/2/2 144/2/2
f 134/2/2 135/2/2 145/2/2
f 145/2/2 135/2/2 146/2/2
f 143/2/2 144/2/2 147/2/2
f 144/2/2 145/2/2 147/2/2
f 147/2/2 145/2/2 148/2/2
f 149/3/2 150/3/2 152/3/2
f 150/2/2 151/2/2 153/2/2
f 152/3/2 150/3/2 153/3/2
f 153/2/2 151/2/2 155/2/2
f 154/2/2 155/2/2 156/2/2
f 155/2/2 151/2/2 157/2/2
f 156/2/2 155/2/2 157/2/2
f 158/3/2 159/3/2 160/3/2
f 160/3/2 159/3/2 161/3/2
f 164/2/3 163/2/3 162/2/3
f 165/2/3 163/2/3 164/2/3
f 168/2/3 167/2/3 166/2/3
f 169/2/3 167/2/3 168/2/3
f 170/2/3 167/2/3 169/2/3
f 174/2/3 173/2/3 172/2/3
f 175/2/3 173/2/3 174/2/3
f 178/2/3 171/2/3 170/2/3
f 179/2/3 171/2/3 178/2/3
f 180/2/3 177/2/3 176/2/3
f 180/2/3 178/2/3 177/2/3
f 181/2/3 178/2/3 180/2/3
f 186/2/3 183/2/3 182/2/3
f 187/2/3 183/2/3 186/2/3
f 193/2/3 185/2/3 184/2/3
f 194/2/3 185/2/3 193/2/3
f 196/2/3 188/2/3 187/2/3
f 197/2/3 188/2/3 196/2/3
f 199/3/3 193/3/3 192/3/3
f 199/7/3 194/7/3 193/7/3
f 200/3/3 195/3/3 194/3/3
f 200/7/3 194/7/3 199/7/3
f 201/3/3 200/3/3 199/3/3
f 201/3/3 195/3/3 200/3/3
f 202/3/3 195/3/3 201/3/3
f 203/3/3 199/3/3 192/3/3
f 203/3/3 201/3/3 199/3/3
f 204/3/3 201/3/3 203/3/3
f 206/5/3 190/5/3 189/5/3
f 207/6/3 191/6/3 190/6/3
f 207/5/3 190/5/3 206/5/3
f 208/1/3 192/1/3 191/1/3
f 208/6/3 191/6/3 207/6/3
f 209/3/3 203/3/3 192/3/3
f 209/1/3 192/1/3 208/1/3
f 210/7/3 204/7/3 203/7/3
f 210/3/3 203/3/3 209/3/3
f 211/3/3 205/3/3 204/3/3
f 211/7/3 204/7/3 210/7/3
f 212/3/3 205/3/3 211/3/3
f 214/2/3 198/2/3 197/2/3
f 215/2/3 198/2/3 214/2/3
f 216/2/3 211/2/3 210/2/3
f 217/2/3 211/2/3 216/2/3
f 218/2/3 214/2/3 213/2/3
f 219/2/3 214/2/3 218/2/3
f 222/3/3 221/3/3 220/3/3
f 223/3/3 221/3/3 222/3/3
f 227/3/3 225/3/3 224/3/3
f 228/3/3 225/3/3 227/3/3
f 232/6/3 223/6/3 222/6/3
f 233/6/3 223/6/3 232/6/3
f 234/2/3 227/2/3 226/2/3
f 235/2/3 227/2/3 234/2/3
f 236/4/3 230/4/3 229/4/3
f 237/5/3 231/5/3 230/5/3
f 237/4/3 230/4/3 236/4/3
f 238/5/3 231/5/3 237/5/3
f 242/4/3 240/4/3 239/4/3
f 243/5/3 241/5/3 240/5/3
f 243/4/3 240/4/3 242/4/3
f 244/5/3 241/5/3 243/5/3
f 249/2/3 248/2/3 247/2/3
f 250/2/3 248/2/3 249/2/3
f 254/3/3 251/3/3 250/3/3
f 255/3/3 251/3/3 254/3/3
f 256/2/3 253/2/3 252/2/3
f 257/2/3 253/2/3 256/2/3
f 258/6/3 246/6/3 245/6/3
f 259/6/3 246/6/3 258/6/3
f 260/3/3 259/3/3 258/3/3
f 261/3/3 259/3/3 260/3/3
f 264/2/3 263/2/3 262/2/3
f 265/2/3 263/2/3 264/2/3
f 268/2/3 267/2/3 266/2/3
f 269/2/3 267/2/3 268/2/3
f 270/3/4 271/3/4 272/3/4
f 272/3/4 271/3/4 273/3/4
f 272/6/4 273/6/4 277/6/4
f 277/6/4 273/6/4 278/6/4
f 274/4/4 275/4/4 281/4/4
f 275/5/4 276/5/4 282/5/4
f 281/4/4 275/4/4 282/4/4
f 282/5/4 276/5/4 283/5/4
f 284/4/4 285/4/4 287/4/4
f 285/5/4 286/5/4 288/5/4
f 287/4/4 285/4/4 288/4/4
f 288/5/4 286/5/4 289/5/4
f 279/2/4 280/2/4 292/2/4
f 292/2/4 280/2/4 293/2/4
f 290/6/4 291/6/4 294/6/4
f 294/6/4 291/6/4 295/6/4
f 294/3/4 295/3/4 296/3/4
f 296/3/4 295/3/4 297/3/4
f 298/2/4 299/2/4 301/2/4
f 301/2/4 299/2/4 302/2/4
f 300/2/4 301/2/4 307/2/4
f 307/2/4 301/2/4 308/2/4
f 304/5/4 305/5/4 309/5/4
f 305/6/4 306/6/4 310/6/4
f 309/5/4 305/5/4 310/5/4
f 306/1/4 307/1/4 311/1/4
f 310/6/4 306/6/4 311/6/4
f 311/1/4 307/1/4 312/1/4
f 312/2/4 313/2/4 314/2/4
f 314/2/4 313/2/4 315/2/4
f 302/2/4 303/2/4 316/2/4
f 316/2/4 303/2/4 317/2/4
f 315/2/4 316/2/4 318/2/4
f 318/2/4 316/2/4 319/2/4
f 320/2/4 321/2/4 323/2/4
f 322/2/4 323/2/4 324/2/4
f 323/2/4 321/2/4 325/2/4
f 324/2/4 323/2/4 325/2/4
f 325/2/4 321/2/4 326/2/4
f 326/2/4 321/2/4 327/2/4
f 332/4/5 329/4/5 328/4/5
f 333/4/5 329/4/5 332/4/5
f 334/4/5 331/4/5 330/4/5
f 335/4/5 331/4/5 334/4/5
f 338/5/5 337/5/5 336/5/5
f 339/5/5 337/5/5 338/5/5
f 340/5/5 337/5/5 339/5/5
f 341/5/5 337/5/5 340/5/5
f 343/5/5 340/5/5 339/5/5
f 344/5/5 340/5/5 343/5/5
f 346/5/5 343/5/5 342/5/5
f 346/5/5 345/5/5 344/5/5
f 346/5/5 344/5/5 343/5/5
f 347/5/5 345/5/5 346/5/5
f 354/3/5 349/3/5 348/3/5
f 355/6/5 350/6/5 349/6/5
f 355/3/5 349/3/5 354/3/5
f 356/6/5 350/6/5 355/6/5
f 357/6/5 352/6/5 351/6/5
f 358/3/5 353/3/5 352/3/5
f 358/6/5 352/6/5 357/6/5
f 359/3/5 353/3/5 358/3/5
f 364/2/5 361/2/5 360/2/5
f 365/2/5 361/2/5 364/2/5
f 366/2/5 363/2/5 362/2/5
f 367/2/5 363/2/5 366/2/5
f 368/2/5 366/2/5 365/2/5
f 369/2/5 366/2/5 368/2/5
f 375/2/5 371/2/5 370/2/5
f 376/2/5 371/2/5 375/2/5
f 377/2/5 373/2/5 372/2/5
f 378/2/5 373/2/5 377/2/5
f 380/3/5 375/3/5 374/3/5
f 381/3/5 375/3/5 380/3/5
f 382/3/5 379/3/5 378/3/5
f 383/3/5 379/3/5 382/3/5
f 384/2/5 381/2/5 380/2/5
f 385/2/5 381/2/5 384/2/5
f 388/2/5 383/2/5 382/2/5
f 389/2/5 383/2/5 388/2/5
f 390/2/5 386/2/5 385/2/5
f 391/2/5 386/2/5 390/2/5
f 392/2/5 388/2/5 387/2/5
f 393/2/5 388/2/5 392/2/5
f 400/2/5 395/2/5 394/2/5
f 401/2/5 395/2/5 400/2/5
f 402/2/5 397/2/5 396/2/5
f 403/2/5 397/2/5 402/2/5
f 404/2/5 399/2/5 398/2/5
f 405/2/5 399/2/5 404/2/5
f 408/2/5 407/2/5 406/2/5
f 409/2/5 407/2/5 408/2/5
f 410/2/5 407/2/5 409/2/5
f 411/2/5 407/2/5 410/2/5
f 414/2/5 409/2/5 408/2/5
f 415/2/5 409/2/5 414/2/5
f 416/2/5 411/2/5 410/2/5
f 417/2/5 411/2/5 416/2/5
f 420/2/5 413/2/5 412/2/5
f 421/2/5 413/2/5 420/2/5
f 422/2/5 419/2/5 418/2/5
f 423/2/5 419/2/5 422/2/5
f 424/3/6 425/3/6 430/3/6
f 425/6/6 426/6/6 431/6/6
f 430/3/6 425/3/6 431/3/6
f 431/6/6 426/6/6 432/6/6
f 427/6/6 428/6/6 433/6/6
f 428/3/6 429/3/6 434/3/6
f 433/6/6 428/6/6 434/6/6
f 434/3/6 429/3/6 435/3/6
f 436/3/6 437/3/6 440/3/6
f 440/3/6 437/3/6 441/3/6
f 438/3/6 439/3/6 442/3/6
f 442/3/6 439/3/6 443/3/6
f 444/2/6 445/2/6 447/2/6
f 447/2/6 445/2/6 448/2/6
f 446/2/6 447/2/6 451/2/6
f 451/2/6 447/2/6 452/2/6
f 448/2/6 449/2/6 453/2/6
f 453/2/6 449/2/6 454/2/6
f 450/2/6 451/2/6 457/2/6
f 457/2/6 451/2/6 458/2/6
f 455/2/6 456/2/6 459/2/6
f 459/2/6 456/2/6 460/2/6
f 458/2/6 459/2/6 461/2/6
f 461/2/6 459/2/6 462/2/6
f 463/2/6 464/2/6 466/2/6
f 466/2/6 464/2/6 467/2/6
f 465/2/6 466/2/6 469/2/6
f 467/2/6 468/2/6 470/2/6
f 465/2/6 469/2/6 471/2/6
f 469/2/6 470/2/6 471/2/6
f 470/2/6 468/2/6 472/2/6
f 471/2/6 470/2/6 472/2/6
f 473/2/6 474/2/6 475/2/6
f 475/2/6 474/2/6 476/2/6
